<svg xmlns="http://www.w3.org/2000/svg" xml:space="preserve" width="840.471" height="128.051" viewBox="0 0 222.375 33.88"><path d="M79.048 125.572q0 1.305-.352 2.467-.34 1.149-.98 2.089-.626.94-1.527 1.645-.888.705-1.984 1.11l3.968 3.146h-4.921l-3.264-2.624h-3.342q-1.684 0-3.12-.575-1.436-.587-2.48-1.632t-1.645-2.48q-.588-1.436-.588-3.146v-3.577q0-1.697.588-3.133.6-1.45 1.645-2.48 1.044-1.045 2.48-1.633 1.436-.587 3.12-.587h4.595q1.684 0 3.107.587 1.436.588 2.48 1.632 1.045 1.031 1.633 2.48.587 1.437.587 3.134zm-3.394-3.577q0-1.006-.327-1.815-.313-.822-.9-1.397-.575-.587-1.397-.9-.81-.327-1.789-.327h-4.595q-.992 0-1.815.326-.809.314-1.396.901-.588.575-.914 1.397-.314.81-.314 1.815v3.577q0 1.005.314 1.827.326.81.914 1.397.587.575 1.396.901.823.313 1.815.313h4.57q.991 0 1.8-.313.823-.326 1.41-.9.588-.588.901-1.398.327-.822.327-1.827zm21.801 9.438q0 .366-.13.68-.13.312-.366.547-.222.222-.535.353-.3.13-.653.13h-7.676q-.627 0-1.345-.143-.705-.144-1.396-.457-.692-.326-1.345-.81-.64-.496-1.123-1.187-.483-.705-.783-1.62-.287-.913-.287-2.062v-7.833h3.394v7.833q0 .666.222 1.201.235.522.626.9.392.38.914.588.536.196 1.15.196h5.939v-10.718h3.394zm17.755-2.963q0 .705-.248 1.527-.248.81-.81 1.515-.548.691-1.449 1.161-.888.47-2.167.47h-6.123q-.705 0-1.527-.248-.81-.248-1.514-.796-.692-.561-1.162-1.449-.47-.9-.47-2.18 0-.705.248-1.528.248-.822.796-1.514.562-.705 1.45-1.175.9-.47 2.18-.47h6.122v3.238h-6.123q-.691 0-1.07.43-.379.418-.379 1.045 0 .666.431 1.044.444.366 1.045.366h6.096q.692 0 1.07-.418.38-.418.38-1.044v-4.74q0-.665-.419-1.057-.404-.391-1.03-.391h-7.455v-3.225h7.454q.705 0 1.514.248.823.248 1.515.81.705.548 1.175 1.449.47.887.47 2.167zm15.248-6.045h-7.637q-.692 0-1.045.353-.352.34-.352 1.005v9.36h-3.394v-9.36q0-.875.221-1.566.222-.692.588-1.215.379-.535.862-.9.483-.379 1.005-.614.535-.235 1.07-.34.549-.117 1.019-.117h7.663zm15.065 0h-5.927v10.718h-3.433v-10.718h-4.413v-3.394h4.413v-4.608h3.433v4.608h5.927zm17.363 1.28q0 .705-.248 1.527-.248.81-.81 1.515-.548.691-1.449 1.161-.888.47-2.167.47h-6.123v-3.224h6.123q.692 0 1.07-.418.38-.43.38-1.057 0-.666-.432-1.045-.417-.378-1.018-.378h-6.123q-.691 0-1.07.43-.379.418-.379 1.045v4.739q0 .679.418 1.057.43.379 1.058.379h6.096v3.237h-6.123q-.705 0-1.527-.248-.81-.248-1.514-.796-.692-.561-1.162-1.449-.47-.9-.47-2.18v-4.765q0-.705.248-1.515.248-.822.796-1.514.562-.705 1.45-1.175.9-.47 2.18-.47h6.122q.705 0 1.514.248.823.248 1.515.81.705.548 1.175 1.449.47.887.47 2.167m14.634-1.28h-7.637q-.692 0-1.044.353-.353.34-.353 1.005v9.36h-3.394v-9.36q0-.875.222-1.566t.587-1.215q.379-.535.862-.9.483-.379 1.005-.614.535-.235 1.07-.34.549-.117 1.019-.117h7.663zm14.83 10.718h-3.394v-9.36q0-.666-.352-1.005-.353-.353-1.045-.353h-4.412v10.718h-3.395v-12.428q0-.352.131-.652.13-.314.366-.536.235-.235.548-.365t.666-.13h6.122q.705 0 1.515.247.81.248 1.54.797v-1.045h4.595q.483 0 1.019.118.535.104 1.057.34.535.234 1.018.613.483.365.849.9.365.523.587 1.215.222.691.222 1.566v9.36h-3.394v-9.36q0-.666-.34-1.005-.326-.353-1.018-.353h-3.054q.17.627.17 1.358zm25.327-4.673q0 .705-.249 1.527-.248.81-.809 1.515-.548.691-1.449 1.161-.888.47-2.167.47h-6.123q-.705 0-1.527-.248-.81-.248-1.515-.796-.691-.561-1.161-1.449-.47-.9-.47-2.18 0-.705.248-1.528.248-.822.796-1.514.561-.705 1.45-1.175.9-.47 2.18-.47h6.122v3.238h-6.123q-.692 0-1.07.43-.379.418-.379 1.045 0 .666.431 1.044.444.366 1.044.366h6.097q.692 0 1.07-.418t.379-1.044v-4.74q0-.665-.418-1.057-.404-.391-1.031-.391h-7.454v-3.225h7.454q.705 0 1.514.248.823.248 1.515.81.705.548 1.175 1.449.47.887.47 2.167zm16.54-.092q0 .875-.222 1.58-.222.692-.587 1.227-.366.522-.849.901-.483.366-1.018.6-.523.235-1.07.353-.536.104-1.02.104h-9.19v-3.394h9.165q.692 0 1.044-.352.353-.353.353-1.019-.066-1.357-1.371-1.357h-5.261q-1.123 0-1.906-.392t-1.28-.98q-.483-.587-.704-1.265-.21-.68-.21-1.267 0-1.135.405-1.906.405-.783 1.019-1.266t1.331-.692q.718-.222 1.345-.222h8.342v3.394h-8.316q-.261 0-.418.066-.143.052-.222.156-.065.092-.078.21-.013.104-.013.208.013.209.078.326t.157.17q.104.052.222.065h5.508q1.306 0 2.22.47t1.475 1.188q.562.705.81 1.54.26.836.26 1.554zm14.974-5.953h-5.927v10.718h-3.434v-10.718h-4.412v-3.394h4.412v-4.608h3.434v4.608h5.927zm17.363 1.28q0 .705-.248 1.527-.249.81-.81 1.515-.548.691-1.449 1.161-.888.47-2.167.47h-6.123v-3.224h6.123q.692 0 1.07-.418.379-.43.379-1.057 0-.666-.43-1.045-.419-.378-1.02-.378h-6.122q-.692 0-1.07.43-.379.418-.379 1.045v4.739q0 .679.418 1.057.43.379 1.057.379h6.097v3.237h-6.123q-.705 0-1.527-.248-.81-.248-1.515-.796-.691-.561-1.161-1.45-.47-.9-.47-2.18v-4.764q0-.705.248-1.515.248-.822.796-1.514.561-.705 1.45-1.175.9-.47 2.18-.47h6.122q.705 0 1.514.248.823.248 1.515.81.705.548 1.175 1.449.47.887.47 2.167m14.634-1.28h-7.637q-.692 0-1.044.353-.353.34-.353 1.005v9.36h-3.394v-9.36q0-.875.222-1.566t.587-1.215q.379-.535.862-.9.483-.379 1.005-.614.535-.235 1.07-.34.549-.117 1.019-.117h7.663z" aria-label="Quartermaster" style="font-size:25.1166px;line-height:1.4;font-family:Audiowide;-inkscape-font-specification:Audiowide;letter-spacing:0;fill:#fda801;fill-opacity:1;stroke-width:5.41339;stroke-linejoin:bevel;paint-order:stroke fill markers" transform="translate(-58.813 -102.148)"/><g style="fill:#fff"><path d="M-101.052 290.158v-3.175l11.576-.004 11.575-.004.662-.333.661-.334.082-1.27c.045-.7-.051-1.43-.213-1.626l-.293-.354-9.71-.093-9.71-.093-1.386-.622c-1.665-.747-3.069-2.23-3.965-4.188l-.661-1.444.111-2.557.112-2.557.581-1.117c.892-1.714 2.16-3.005 3.62-3.684l1.324-.617 12.766-.003 12.766-.003v6.614h-24.012l-.313.377c-.172.208-.276.89-.231 1.516l.082 1.138.662.333.661.333 9.407.004 9.407.004 1.363.679c1.576.785 2.815 2.092 3.608 3.805l.557 1.204v5.556l-.557 1.204c-.793 1.713-2.032 3.02-3.608 3.806l-1.363.679h-25.56zm46.832-7.144v-10.319h-12.171v-6.614h31.22v6.614h-12.435v20.638h-6.614zm23.603-.595.077-10.914.597-1.118c.926-1.733 2.185-3.01 3.634-3.684l1.325-.617 10.817-.003 10.817-.003 1.09.32 1.088.32 1.475 1.466 1.475 1.466.5 1.323.502 1.323.089 10.517.088 10.517h-6.642v-8.467h-16.669v-6.614h16.669v-1.945c0-1.07-.13-2.32-.29-2.778l-.291-.834h-19.157l-.317.318-.318.317v20.002h-6.637zm38.309-2.712V266.08h28.471l1.37.682c1.602.799 2.798 2.203 3.66 4.298l.618 1.502v5.292l-.608 1.476c-.81 1.97-1.864 3.301-3.26 4.12l-1.152.675-2.261.304-2.262.304 3.72 4.18c2.045 2.3 3.719 4.235 3.719 4.3s-2.02.119-4.487.119h-4.487l-6.743-7.607-6.744-7.607 8.425-.132 8.425-.132.556-.504.557-.504v-3.276l-.484-.438-.484-.438H14.307v20.638H7.692Zm85.99 0V266.08h29.104v6.614h-22.49v3.704h21.167v6.615h-21.167v10.319h-6.614zm33.337 0V266.08h6.615v20.902h20.902v6.35h-27.517Zm31.75 0V266.08h29.104v6.614h-22.489v3.704h21.166v6.615h-21.166v3.969h22.489v6.35H158.77Zm33.867 0V266.08h29.104v6.614h-22.49v3.704h21.167v6.615H199.25v3.969h22.49v6.35h-29.104zm45.508 3.307v-10.319h-12.171v-6.614h30.957v6.614h-12.171v20.638h-6.615zM61.898 286.784l-.363-.463.463.363c.44.346.58.563.363.563-.055 0-.263-.208-.463-.463m12.204.116c0-.046.387-.433.86-.86l.86-.777-.777.86c-.724.801-.943.981-.943.777m-13.262-1.174-.364-.463.463.363c.441.346.581.563.364.563-.055 0-.264-.208-.463-.463m-.231-12.072c0-.055.208-.264.463-.463l.463-.363-.363.463c-.346.44-.563.58-.563.363m14.138-.76-.777-.86.86.777c.473.427.86.814.86.86 0 .204-.218.024-.943-.777m-13.08-.299c0-.055.208-.263.463-.463l.463-.363-.363.463c-.346.44-.563.581-.563.363M61.633 286.255l-.363-.463.463.363c.44.346.581.563.363.563-.055 0-.263-.208-.463-.463" style="fill:#fff" transform="translate(49.555 -67.67)scale(.25917)"/><path d="M74.632 286.057c.341-.364.68-.662.753-.662s-.147.298-.489.662c-.342.363-.68.661-.754.661-.072 0 .148-.298.49-.661m-13.792-.596-.364-.463.463.364c.441.345.581.562.364.562-.055 0-.264-.208-.463-.463m-.231-11.543c0-.055.208-.263.463-.463l.463-.363-.363.463c-.346.44-.563.581-.563.363m14.003-.892-.642-.728.728.642c.68.6.849.814.641.814-.047 0-.375-.328-.727-.728" style="fill:#fff" transform="translate(49.555 -67.67)scale(.25917)"/><path d="M67.652 296.701c-.917-2.612-3.258-7.206-4.523-8.874-.696-.918-1.995-2.263-2.885-2.988-1.542-1.255-6.847-4.052-8.962-4.725-.546-.174-.992-.402-.992-.507s.446-.347.992-.538c2.339-.82 7.468-3.543 8.962-4.76 2.801-2.28 4.78-5.341 6.971-10.788l.977-2.426.487 1.368c.864 2.429 2.693 6.169 3.854 7.878 2.33 3.43 5.349 5.692 10.439 7.82 1.67.699 3.037 1.335 3.037 1.413 0 .08-1.367.715-3.037 1.413-7.593 3.175-10.783 6.63-14.145 15.318l-.69 1.78z" style="fill:#fda801;fill-opacity:1" transform="translate(49.555 -67.67)scale(.25917)"/></g></svg>
