<?xml version="1.0" encoding="UTF-8" standalone="no"?>
<!-- Created with Inkscape (http://www.inkscape.org/) -->

<svg
   width="267.91119mm"
   height="50.986748mm"
   viewBox="0 0 267.91119 50.986748"
   version="1.1"
   id="svg1"
   inkscape:version="1.4.2 (ebf0e940d0, 2025-05-08)"
   sodipodi:docname="qm-logo.svg"
   xmlns:inkscape="http://www.inkscape.org/namespaces/inkscape"
   xmlns:sodipodi="http://sodipodi.sourceforge.net/DTD/sodipodi-0.dtd"
   xmlns="http://www.w3.org/2000/svg"
   xmlns:svg="http://www.w3.org/2000/svg">
  <sodipodi:namedview
     id="namedview1"
     pagecolor="#ffffff"
     bordercolor="#000000"
     borderopacity="0.25"
     inkscape:showpageshadow="2"
     inkscape:pageopacity="0.0"
     inkscape:pagecheckerboard="0"
     inkscape:deskcolor="#d1d1d1"
     inkscape:document-units="mm"
     inkscape:zoom="1.1653671"
     inkscape:cx="304.19599"
     inkscape:cy="220.53137"
     inkscape:window-width="1920"
     inkscape:window-height="1151"
     inkscape:window-x="1920"
     inkscape:window-y="182"
     inkscape:window-maximized="1"
     inkscape:current-layer="layer1"
     showguides="true" />
  <defs
     id="defs1">
    <inkscape:path-effect
       effect="fillet_chamfer"
       id="path-effect5"
       is_visible="true"
       lpeversion="1"
       nodesatellites_param="F,0,0,1,0,0,0,1 @ F,0,0,1,0,0,0,1 @ F,0,0,1,0,0,0,1 @ F,0,0,1,0,0,0,1 @ F,0,0,1,0,0,0,1 @ F,0,0,1,0,5.3260301,0,1 @ F,0,0,1,0,0,0,1 @ F,0,0,1,0,5.2182162,0,1"
       radius="0"
       unit="px"
       method="auto"
       mode="F"
       chamfer_steps="1"
       flexible="false"
       use_knot_distance="true"
       apply_no_radius="true"
       apply_with_radius="true"
       only_selected="false"
       hide_knots="false" />
    <inkscape:path-effect
       effect="fillet_chamfer"
       id="path-effect4"
       is_visible="true"
       lpeversion="1"
       nodesatellites_param="F,0,0,1,0,0,0,1 @ F,0,0,1,0,0,0,1 @ F,0,0,1,0,0,0,1 @ F,0,0,1,0,0,0,1 @ F,0,0,1,0,0,0,1 @ C,0,0,1,0,1.329451,0,1 @ F,0,0,1,0,0,0,1 @ F,0,0,1,0,0,0,1"
       radius="0"
       unit="px"
       method="auto"
       mode="F"
       chamfer_steps="1"
       flexible="false"
       use_knot_distance="true"
       apply_no_radius="true"
       apply_with_radius="true"
       only_selected="false"
       hide_knots="false" />
  </defs>
  <g
     inkscape:label="Capa 1"
     inkscape:groupmode="layer"
     id="layer1"
     transform="translate(-11.448036,-96.559914)">
    <path
       style="font-size:25.1166px;line-height:1.4;font-family:Audiowide;-inkscape-font-specification:Audiowide;letter-spacing:0px;fill:#f2f2f2;stroke-width:5.08547;stroke-linejoin:bevel;paint-order:stroke fill markers"
       d="m 87.347334,126.20508 q 0,1.22639 -0.331127,2.31789 -0.318863,1.07922 -0.919798,1.96223 -0.58867,0.88301 -1.434883,1.54526 -0.83395,0.66225 -1.864123,1.04244 l 3.728245,2.95561 h -4.623515 l -3.065991,-2.46505 h -3.139575 q -1.582051,0 -2.931087,-0.53962 -1.349037,-0.55188 -2.330154,-1.53299 -0.981117,-0.98112 -1.545259,-2.33016 -0.551879,-1.34903 -0.551879,-2.95561 v -3.36033 q 0,-1.59432 0.551879,-2.94335 0.564142,-1.3613 1.545259,-2.33015 0.981117,-0.98112 2.330154,-1.533 1.349036,-0.55188 2.931087,-0.55188 h 4.316916 q 1.582051,0 2.918823,0.55188 1.349037,0.55188 2.330154,1.533 0.981117,0.96885 1.532995,2.33015 0.551879,1.34903 0.551879,2.94335 z m -3.188631,-3.36033 q 0,-0.94433 -0.306599,-1.70469 -0.294335,-0.77263 -0.846214,-1.31225 -0.539614,-0.55187 -1.312244,-0.84621 -0.760366,-0.3066 -1.680163,-0.3066 h -4.316916 q -0.932061,0 -1.704691,0.3066 -0.760366,0.29434 -1.312244,0.84621 -0.551879,0.53962 -0.858478,1.31225 -0.294335,0.76036 -0.294335,1.70469 v 3.36033 q 0,0.94432 0.294335,1.71695 0.306599,0.76037 0.858478,1.31225 0.551878,0.53961 1.312244,0.84621 0.77263,0.29433 1.704691,0.29433 h 4.292388 q 0.932061,0 1.692427,-0.29433 0.77263,-0.3066 1.324508,-0.84621 0.551879,-0.55188 0.846214,-1.31225 0.306599,-0.77263 0.306599,-1.71695 z m 20.480817,8.86685 q 0,0.34339 -0.12264,0.63772 -0.12264,0.29434 -0.34339,0.51509 -0.20848,0.20849 -0.50282,0.33113 -0.28207,0.12264 -0.6132,0.12264 h -7.211209 q -0.58867,0 -1.263188,-0.13491 -0.662254,-0.1349 -1.312244,-0.42924 -0.64999,-0.3066 -1.263189,-0.76036 -0.600934,-0.46603 -1.054701,-1.11602 -0.453766,-0.66226 -0.735837,-1.52073 -0.269808,-0.85848 -0.269808,-1.93771 v -7.35838 h 3.188631 v 7.35838 q 0,0.62546 0.208488,1.12828 0.220751,0.49056 0.58867,0.84622 0.367919,0.35565 0.858477,0.55188 0.502823,0.18396 1.079229,0.18396 h 5.580101 v -10.06872 h 3.18863 z m 16.679,-2.78392 q 0,0.66225 -0.23302,1.43488 -0.23302,0.76037 -0.76037,1.42262 -0.51508,0.64999 -1.3613,1.09149 -0.83395,0.44151 -2.03581,0.44151 h -5.7518 q -0.66226,0 -1.43489,-0.23302 -0.76036,-0.23301 -1.42262,-0.7481 -0.64999,-0.52735 -1.09149,-1.3613 -0.4415,-0.84621 -0.4415,-2.04808 0,-0.66226 0.23301,-1.43489 0.23302,-0.77263 0.7481,-1.42262 0.52735,-0.66225 1.3613,-1.10375 0.84622,-0.44151 2.04809,-0.44151 h 5.7518 v 3.04147 h -5.7518 q -0.64999,0 -1.00565,0.40471 -0.35565,0.39244 -0.35565,0.98111 0,0.62547 0.40471,0.98112 0.41697,0.34339 0.98111,0.34339 h 5.72728 q 0.64999,0 1.00564,-0.39244 0.35566,-0.39245 0.35566,-0.98112 v -4.45182 q 0,-0.62546 -0.39245,-0.99338 -0.38018,-0.36792 -0.96885,-0.36792 h -7.00273 v -3.0292 h 7.00273 q 0.66225,0 1.42262,0.23302 0.77263,0.23301 1.42262,0.76036 0.66225,0.51509 1.10375,1.3613 0.44151,0.83395 0.44151,2.03582 z m 14.32431,-5.67822 h -7.17442 q -0.64999,0 -0.98112,0.33113 -0.33112,0.31886 -0.33112,0.94432 v 8.79327 h -3.18864 v -8.79327 q 0,-0.82168 0.20849,-1.47167 0.20849,-0.64999 0.55188,-1.14055 0.35565,-0.50282 0.80942,-0.84621 0.45377,-0.35566 0.94433,-0.57641 0.50282,-0.22075 1.00564,-0.31886 0.51509,-0.11038 0.95659,-0.11038 h 7.19895 z m 14.15261,0 h -5.56784 v 10.06872 h -3.22542 v -10.06872 h -4.14522 v -3.18863 h 4.14522 v -4.32918 h 3.22542 v 4.32918 h 5.56784 z m 16.31108,1.20187 q 0,0.66225 -0.23302,1.43488 -0.23302,0.76037 -0.76037,1.42262 -0.51508,0.64999 -1.3613,1.0915 -0.83395,0.4415 -2.03581,0.4415 h -5.7518 v -3.0292 h 5.7518 q 0.64999,0 1.00564,-0.39245 0.35566,-0.40471 0.35566,-0.99338 0,-0.62546 -0.40471,-0.98112 -0.39245,-0.35565 -0.95659,-0.35565 h -5.7518 q -0.64999,0 -1.00565,0.40471 -0.35565,0.39245 -0.35565,0.98112 v 4.45182 q 0,0.63772 0.39244,0.99338 0.40471,0.35565 0.99338,0.35565 h 5.72728 v 3.04147 h -5.7518 q -0.66226,0 -1.43489,-0.23302 -0.76036,-0.23301 -1.42262,-0.7481 -0.64999,-0.52735 -1.09149,-1.3613 -0.4415,-0.84621 -0.4415,-2.04808 v -4.47635 q 0,-0.66225 0.23301,-1.42262 0.23302,-0.77263 0.7481,-1.42262 0.52735,-0.66225 1.3613,-1.10376 0.84622,-0.4415 2.04809,-0.4415 h 5.7518 q 0.66225,0 1.42262,0.23302 0.77263,0.23301 1.42262,0.76036 0.66225,0.51509 1.10375,1.3613 0.44151,0.83395 0.44151,2.03582 z m 13.7479,-1.20187 H 172.68 q -0.64999,0 -0.98111,0.33113 -0.33113,0.31886 -0.33113,0.94432 v 8.79327 h -3.18863 v -8.79327 q 0,-0.82168 0.20849,-1.47167 0.20848,-0.64999 0.55187,-1.14055 0.35566,-0.50282 0.80943,-0.84621 0.45376,-0.35566 0.94432,-0.57641 0.50282,-0.22075 1.00565,-0.31886 0.51508,-0.11038 0.95658,-0.11038 h 7.19895 z m 13.93186,10.06872 h -3.18863 v -8.79327 q 0,-0.62546 -0.33113,-0.94432 -0.33112,-0.33113 -0.98111,-0.33113 h -4.14522 v 10.06872 h -3.18863 v -11.6753 q 0,-0.33113 0.12264,-0.6132 0.12264,-0.29433 0.34339,-0.50282 0.22075,-0.22075 0.51508,-0.34339 0.29434,-0.12264 0.62547,-0.12264 h 5.7518 q 0.66225,0 1.42262,0.23302 0.76036,0.23301 1.44714,0.7481 v -0.98112 h 4.31692 q 0.45377,0 0.95659,0.11038 0.50282,0.0981 0.99338,0.31886 0.50282,0.22075 0.95659,0.57641 0.45377,0.34339 0.79716,0.84621 0.34339,0.49056 0.55187,1.14055 0.20849,0.64999 0.20849,1.47167 v 8.79327 h -3.18863 v -8.79327 q 0,-0.62546 -0.31886,-0.94432 -0.3066,-0.33113 -0.95659,-0.33113 h -2.86977 q 0.15943,0.58867 0.15943,1.27545 z m 23.79209,-4.3905 q 0,0.66225 -0.23301,1.43488 -0.23302,0.76037 -0.76037,1.42262 -0.51509,0.64999 -1.3613,1.09149 -0.83395,0.44151 -2.03582,0.44151 h -5.7518 q -0.66225,0 -1.43488,-0.23302 -0.76037,-0.23301 -1.42262,-0.7481 -0.64999,-0.52735 -1.09149,-1.3613 -0.44151,-0.84621 -0.44151,-2.04808 0,-0.66226 0.23302,-1.43489 0.23301,-0.77263 0.7481,-1.42262 0.52735,-0.66225 1.3613,-1.10375 0.84622,-0.44151 2.04808,-0.44151 h 5.7518 v 3.04147 h -5.7518 q -0.64999,0 -1.00564,0.40471 -0.35566,0.39244 -0.35566,0.98111 0,0.62547 0.40471,0.98112 0.41698,0.34339 0.98112,0.34339 h 5.72727 q 0.64999,0 1.00565,-0.39244 0.35565,-0.39245 0.35565,-0.98112 v -4.45182 q 0,-0.62546 -0.39244,-0.99338 -0.38019,-0.36792 -0.96886,-0.36792 h -7.00272 v -3.0292 h 7.00272 q 0.66226,0 1.42262,0.23302 0.77263,0.23301 1.42262,0.76036 0.66226,0.51509 1.10376,1.3613 0.4415,0.83395 0.4415,2.03582 z m 15.53846,-0.0859 q 0,0.82168 -0.20849,1.48394 -0.20849,0.64999 -0.55188,1.15281 -0.34339,0.49056 -0.79716,0.84622 -0.45376,0.34339 -0.95659,0.56414 -0.49056,0.22075 -1.00564,0.33112 -0.50282,0.0981 -0.95659,0.0981 h -8.63383 v -3.18863 h 8.6093 q 0.64999,0 0.98112,-0.33113 0.33113,-0.33113 0.33113,-0.95659 -0.0613,-1.27545 -1.28772,-1.27545 h -4.94238 q -1.0547,0 -1.79054,-0.36792 -0.73584,-0.36792 -1.20187,-0.9198 -0.45376,-0.55188 -0.66225,-1.1896 -0.19622,-0.63773 -0.19622,-1.18961 0,-1.06696 0.38018,-1.79054 0.38018,-0.73584 0.95659,-1.1896 0.5764,-0.45377 1.25092,-0.64999 0.67452,-0.20849 1.26319,-0.20849 h 7.83667 v 3.18863 h -7.81214 q -0.24528,0 -0.39245,0.0613 -0.1349,0.0491 -0.20849,0.14717 -0.0613,0.0859 -0.0736,0.19622 -0.0123,0.0981 -0.0123,0.19623 0.0123,0.19622 0.0736,0.30659 0.0613,0.11038 0.14717,0.15944 0.0981,0.0491 0.20849,0.0613 0.12264,0 0.23301,0 h 4.94238 q 1.2264,0 2.08487,0.4415 0.85848,0.4415 1.38583,1.11602 0.52735,0.66225 0.76037,1.44715 0.24528,0.78489 0.24528,1.45941 z m 14.06676,-5.59237 h -5.56784 v 10.06872 h -3.22542 v -10.06872 h -4.14522 v -3.18863 h 4.14522 v -4.32918 h 3.22542 v 4.32918 h 5.56784 z m 16.31108,1.20187 q 0,0.66225 -0.23302,1.43488 -0.23301,0.76037 -0.76036,1.42262 -0.51509,0.64999 -1.3613,1.0915 -0.83395,0.4415 -2.03582,0.4415 h -5.7518 v -3.0292 h 5.7518 q 0.64999,0 1.00564,-0.39245 0.35566,-0.40471 0.35566,-0.99338 0,-0.62546 -0.40471,-0.98112 -0.39245,-0.35565 -0.95659,-0.35565 h -5.7518 q -0.64999,0 -1.00565,0.40471 -0.35565,0.39245 -0.35565,0.98112 v 4.45182 q 0,0.63772 0.39245,0.99338 0.40471,0.35565 0.99338,0.35565 h 5.72727 v 3.04147 h -5.7518 q -0.66225,0 -1.43488,-0.23302 -0.76037,-0.23301 -1.42262,-0.7481 -0.64999,-0.52735 -1.0915,-1.3613 -0.4415,-0.84621 -0.4415,-2.04808 v -4.47635 q 0,-0.66225 0.23302,-1.42262 0.23301,-0.77263 0.7481,-1.42262 0.52735,-0.66225 1.3613,-1.10376 0.84621,-0.4415 2.04808,-0.4415 h 5.7518 q 0.66225,0 1.42262,0.23302 0.77263,0.23301 1.42262,0.76036 0.66225,0.51509 1.10376,1.3613 0.4415,0.83395 0.4415,2.03582 z m 13.7479,-1.20187 h -7.17442 q -0.64999,0 -0.98112,0.33113 -0.33113,0.31886 -0.33113,0.94432 v 8.79327 h -3.18863 v -8.79327 q 0,-0.82168 0.20849,-1.47167 0.20849,-0.64999 0.55188,-1.14055 0.35565,-0.50282 0.80942,-0.84621 0.45377,-0.35566 0.94433,-0.57641 0.50282,-0.22075 1.00564,-0.31886 0.51509,-0.11038 0.95659,-0.11038 h 7.19895 z"
       id="text1"
       aria-label="Quartermaster" />
    <path
       d="m 73.278433,111.07048 q 0,0.86785 -0.520709,1.48202 -0.560763,0.64087 -1.415259,0.64087 H 65.4144 v -1.60218 h 5.928065 q 0.333788,0 0.333788,-0.52071 0,-0.52071 -0.333788,-0.52071 h -4.312534 q -0.854496,0 -1.415259,-0.64087 -0.53406,-0.60082 -0.53406,-1.46867 0,-0.86784 0.547412,-1.49536 0.547411,-0.62753 1.401907,-0.62753 h 5.928066 v 1.60218 h -5.928066 q -0.333787,0 -0.333787,0.52071 0,0.50736 0.333787,0.50736 h 4.312534 q 0.854496,0 1.415259,0.64087 0.520709,0.61417 0.520709,1.48202 z m 8.464845,-3.15096 H 78.64573 v 5.27385 h -1.60218 v -5.27385 h -3.097548 v -1.60218 h 7.797276 z m 8.99892,5.27385 h -1.60218 v -2.18965 h -4.219074 v -1.60218 h 4.219074 v -0.96131 q 0,-0.52071 -0.347139,-0.52071 h -4.53951 q -0.333787,0 -0.333787,0.52071 v 4.75314 h -1.60218 v -4.75314 q 0,-0.86784 0.53406,-1.49536 0.547411,-0.62753 1.401907,-0.62753 h 4.53951 q 0.867848,0 1.401908,0.62753 0.547411,0.62752 0.547411,1.49536 z m 8.731879,0 h -2.189646 l -3.431336,-3.85859 h 4.125614 q 0.440599,0 0.440599,-0.70763 0,-0.70763 -0.440599,-0.70763 h -4.966758 v 5.27385 h -1.60218 v -6.87603 h 6.662398 q 0.921254,0 1.455314,0.72099 0.494007,0.65422 0.494007,1.58882 0,0.93461 -0.494007,1.58883 -0.53406,0.72098 -1.455314,0.72098 H 97.458 Z m 7.263213,-2.63025 h -6.04823 v -1.61553 h 6.04823 z m 7.99755,-2.6436 h -5.71444 v 1.02807 h 5.35395 v 1.60218 h -5.35395 v 2.6436 h -1.61553 v -6.87603 h 7.32997 z m 7.37003,5.27385 h -6.87602 v -6.87603 h 1.60218 v 5.27385 h 5.27384 z m 7.99756,-5.27385 h -5.72779 v 1.02807 h 5.35395 v 1.60218 h -5.35395 v 1.04142 h 5.71444 v 1.60218 h -7.31662 v -6.87603 h 7.32997 z m 7.99756,0 h -5.72779 v 1.02807 h 5.35395 v 1.60218 h -5.35395 v 1.04142 h 5.71444 v 1.60218 h -7.31662 v -6.87603 h 7.32997 z m 8.46486,0 h -3.09754 v 5.27385 h -1.60218 v -5.27385 h -3.09755 v -1.60218 h 7.79727 z"
       id="text12"
       style="font-size:13.3515px;line-height:1.4;font-family:Bitsumishi;-inkscape-font-specification:Bitsumishi;letter-spacing:0px;fill:#cccccc;stroke-width:2.70332;stroke-linejoin:bevel;paint-order:stroke fill markers"
       aria-label="STAR-FLEET" />
    <g
       id="g2-6-7"
       transform="matrix(0.04769706,0,0,0.04769706,10.987823,98.502049)"
       style="display:inline">
      <rect
         class="cls-1"
         width="485.23502"
         height="489.63943"
         id="rect8-4-8"
         x="251.05287"
         y="242.244"
         style="fill:#19222c;stroke-width:0.49738" />
      <path
         class="cls-2"
         d="m 282.67,520.86 c 17.67,-4.7 38,4.64 46,21.1 8.26,-18.39 38.86,-20 49,-2.59 3.64,-24.51 9.08,-52 29.79,-65.59 18.67,-12.27 43.16,-8.79 65.15,-4.84 11.63,2.09 23.7,4.36 33.23,11.33 9.53,6.97 15.66,20.13 10.82,30.9 a 34.75,34.75 0 0 1 50,40.84 c 20.66,6.7 35,29 32.51,50.61 15.08,-13.08 39.21,-14.25 55.5,-2.71 -11.48,-17.94 -0.81,-45.68 19.74,-51.29 -4.21,-18.63 8.71,-39.42 27.27,-43.9 13.77,1.3 23.93,14.74 25.9,28.43 1.97,13.69 -2.42,27.44 -7.36,40.35 -21.31,55.79 -61.8,108.3 -114.52,136.35 -29.85,15.89 -67.74,30.72 -102.13,29.61 -34.86,-1.12 -66.09,1.81 -104.38,-15.85 C 385.89,717.48 372,713.16 362.13,705.52 351.22,697.08 331.8,685 322.3,675 296.76,648.11 203.16,542 282.67,520.86 Z"
         id="path10-6-5"
         style="fill:#fc5533" />
      <path
         class="cls-3"
         d="m 297.56,559.78 c 17,-3.83 36.63,3.78 44.31,17.2 8,-15 37.43,-16.3 47.2,-2.11 3.51,-20 8.74,-42.35 28.69,-53.44 18,-10 41.56,-7.16 62.74,-3.94 11.2,1.7 22.82,3.55 32,9.23 9.18,5.68 15.08,16.4 10.42,25.18 11.62,-5.47 27.13,-4.3 37.43,2.81 10.3,7.11 14.76,19.73 10.75,30.46 19.9,5.46 33.72,23.66 31.31,41.24 14.53,-10.65 37.76,-11.61 53.45,-2.2 -11.06,-14.62 -0.78,-37.22 19,-41.79 -4.05,-15.18 8.38,-32.12 26.26,-35.77 13.26,1.06 23,12 24.94,23.16 1.94,11.16 -2.33,22.35 -7.09,32.88 -20.56,45.44 -59.56,88.22 -110.33,111.08 -28.75,12.94 -65.24,25 -98.37,24.13 -33.57,-0.91 -63.65,1.47 -100.53,-12.92 -12.81,-5 -26.19,-8.52 -35.69,-14.74 -10.51,-6.88 -29.21,-16.71 -38.36,-24.86 C 311.13,663.47 221,577 297.56,559.78 Z"
         id="path12-2-3"
         style="fill:#fba729" />
      <path
         class="cls-4"
         d="m 309.77,601.09 c 16.33,-2.92 35.14,2.88 42.5,13.09 7.63,-11.41 35.9,-12.41 45.28,-1.61 3.36,-15.21 8.39,-32.24 27.52,-40.69 17.25,-7.61 39.87,-5.45 60.19,-3 10.74,1.29 21.9,2.7 30.7,7 8.8,4.3 14.47,12.49 10,19.17 11.15,-4.16 26,-3.28 35.91,2.14 9.91,5.42 14.16,15 10.32,23.2 19.09,4.15 32.35,18 30,31.4 13.93,-8.11 36.23,-8.84 51.27,-1.68 -10.61,-11.13 -0.75,-28.34 18.24,-31.82 -3.89,-11.56 8,-24.45 25.19,-27.23 12.72,0.81 22.11,9.15 23.93,17.64 1.82,8.49 -2.23,17 -6.8,25 -19.73,34.6 -57.13,67.18 -105.84,84.58 -27.58,9.86 -62.59,19.06 -94.36,18.37 -32.2,-0.7 -61.06,1.12 -96.43,-9.84 -12.29,-3.81 -25.12,-6.49 -34.23,-11.22 -10.08,-5.24 -28,-12.72 -36.8,-18.93 C 322.78,680 236.31,614.21 309.77,601.09 Z"
         id="path14-8-3"
         style="fill:#ffffff" />
      <path
         class="cls-5"
         d="m 507.46,732 -18.21,-0.14 c -5.28,0 -9.62,-6.94 -9.66,-15.33 -3.79,-121.73 -9.92,-242.43 -1.26,-305 2,-9.23 4.25,-15.23 9.53,-15.19 l 18.21,0.14 c 5.28,0 9.62,6.94 9.66,15.33 7.07,0.11 7.6,184 1.26,305 0.01,8.36 -4.25,15.19 -9.53,15.19 z"
         id="path16-9-8"
         style="fill:#ffffff;stroke:#000000;stroke-width:4px;stroke-linecap:round;stroke-linejoin:round" />
      <path
         class="cls-5"
         d="m 497.91,352.08 c 8.06,-2 21.13,55 18.81,60.09 L 498.16,412 479.59,411.86 c -2.13,-3.4 10.22,-57.74 18.32,-59.78 z"
         id="path18-6-3"
         style="fill:#ffffff;stroke:#000000;stroke-width:4px;stroke-linecap:round;stroke-linejoin:round" />
      <path
         class="cls-5"
         d="m 474.38,732.79 -15.24,-0.11 c -4.41,0 -8,-4.67 -8.07,-10.3 -4.56,-79.41 -7.26,-154 -0.85,-204.66 0,-5.63 3.57,-10.21 8,-10.18 l 15.24,0.11 c 4.41,0 8,4.67 8.07,10.3 3.86,53.69 3,126.72 0.85,204.66 0,5.63 -3.59,10.21 -8,10.18 z"
         id="path20-0-7"
         style="fill:#ffffff;stroke:#000000;stroke-width:4px;stroke-linecap:round;stroke-linejoin:round" />
      <path
         class="cls-5"
         d="m 465.81,477.9 c 6.75,-1.36 17.64,36.92 15.7,40.34 L 466,518.12 450.45,518 c -1.79,-2.3 8.55,-38.74 15.36,-40.1 z"
         id="path22-7-9"
         style="fill:#ffffff;stroke:#000000;stroke-width:4px;stroke-linecap:round;stroke-linejoin:round" />
      <path
         class="cls-5"
         d="m 539,733.27 -15.24,-0.11 c -4.41,0 -8,-4.67 -8.07,-10.3 -1.76,-81.7 -3.44,-162.74 -0.85,-204.66 0,-5.63 3.57,-10.21 8,-10.18 l 15.24,0.11 c 4.41,0 8,4.67 8.07,10.3 8.36,32.7 3.53,123.4 0.85,204.66 0,5.63 -3.56,10.21 -8,10.18 z"
         id="path24-0-3"
         style="fill:#ffffff;stroke:#000000;stroke-width:4px;stroke-linecap:round;stroke-linejoin:round" />
      <path
         class="cls-5"
         d="m 530.47,478.38 c 6.75,-1.36 17.64,36.92 15.7,40.34 l -15.53,-0.12 -15.53,-0.12 c -1.79,-2.29 8.58,-38.74 15.36,-40.1 z"
         id="path26-1-7"
         style="fill:#ffffff;stroke:#000000;stroke-width:4px;stroke-linecap:round;stroke-linejoin:round" />
      <path
         class="cls-6"
         d="m 309.77,632.09 c 16.33,-2.92 35.14,2.88 42.5,13.09 7.63,-11.41 35.9,-12.41 45.28,-1.61 3.36,-15.21 8.39,-32.24 27.52,-40.69 17.25,-7.61 39.87,-5.45 60.19,-3 10.74,1.29 21.9,2.7 30.7,7 8.8,4.3 14.47,12.49 10,19.17 11.15,-4.16 26,-3.28 35.91,2.14 9.91,5.42 14.16,15 10.32,23.2 19.09,4.15 32.35,18 30,31.4 13.93,-8.11 36.23,-8.84 51.27,-1.68 -10.61,-11.13 -0.75,-28.34 18.24,-31.82 -3.89,-11.56 8,-24.45 25.19,-27.23 12.72,0.81 22.11,9.15 23.93,17.64 1.82,8.49 -2.23,17 -6.8,25 -19.73,34.6 -57.13,67.18 -105.84,84.58 -27.58,9.86 -62.59,19.06 -94.36,18.37 -32.2,-0.7 -61.06,1.12 -96.43,-9.84 -12.29,-3.81 -25.12,-6.49 -34.23,-11.22 -10.08,-5.24 -28,-12.72 -36.8,-18.93 C 322.78,711 236.31,645.21 309.77,632.09 Z"
         id="path28-0-8"
         style="opacity:0.8;fill:#ffffff" />
      <path
         class="cls-7"
         d="m 915.87,440.21 c -22,1 -38.37,7.71 -48.12,18 a 6.92,6.92 0 0 0 -3.06,-0.76 l -11.7,-1.3 A 356.28,356.28 0 0 0 766.23,253.72 l 12.93,-18.65 a 7.06,7.06 0 0 0 1.6,-3.28 c 14.9,-0.61 31.41,-8.69 45.45,-23.38 23,-24.09 13.18,-44.83 -5.07,-61 -18.25,-16.17 -41.6,-21.74 -61,2.34 -13.83,17.13 -19.71,33.81 -18.48,47.94 a 6.92,6.92 0 0 0 -2.6,1.78 l -14.86,13.4 A 356.15,356.15 0 0 0 525.92,132.46 L 523.56,113 a 7.06,7.06 0 0 0 -1,-3.51 c 10.74,-10.35 17.72,-27.35 18.46,-47.66 1.22,-33.3 -19.91,-42.27 -44.32,-42.27 -24.41,0 -45.54,11.37 -44.09,42.27 1,22 7.71,38.37 18,48.12 a 6.92,6.92 0 0 0 -0.76,3.06 l -2.16,19.42 A 356.35,356.35 0 0 0 257.51,223 L 239.8,211.76 a 7.06,7.06 0 0 0 -3.34,-1.47 c -1.22,-14.87 -10,-31 -25.2,-44.47 -25,-22 -45.33,-11.36 -60.78,7.54 -15.45,18.9 -20,42.45 4.8,60.89 17.68,13.13 34.58,18.32 48.65,16.53 a 6.93,6.93 0 0 0 1.89,2.52 l 11.73,12 a 356.05,356.05 0 0 0 -77,190.36 l -16.83,2 a 7.06,7.06 0 0 0 -3.51,1 C 109.86,447.92 92.86,440.94 72.55,440.2 39.2,439 30.22,460.1 30.22,484.52 c 0,24.42 11.37,45.54 42.28,44.08 22,-1 38.37,-7.71 48.12,-18 a 6.92,6.92 0 0 0 3.06,0.76 l 16.09,1.79 A 356.14,356.14 0 0 0 220.17,716 L 211,727.32 a 7.06,7.06 0 0 0 -1.85,3.14 c -14.91,-0.53 -32,6.26 -47.11,19.84 -24.79,22.26 -16.57,43.69 0.4,61.25 16.97,17.56 39.82,24.85 61,2.33 15.1,-16 22.23,-32.21 22.09,-46.39 a 6.92,6.92 0 0 0 2.73,-1.58 l 11.46,-8.85 a 356.3,356.3 0 0 0 208.51,88.64 l 1.86,15.4 a 7.06,7.06 0 0 0 1,3.51 C 460.35,875 453.37,892 452.62,912.29 c -1.22,33.3 19.91,42.27 44.32,42.27 24.41,0 45.54,-11.36 44.09,-42.27 -1,-22 -7.71,-38.37 -18,-48.12 a 6.93,6.93 0 0 0 0.76,-3.06 l 1.71,-15.42 A 356.15,356.15 0 0 0 725.31,764.3 l 9.89,7.21 a 7.06,7.06 0 0 0 3.24,1.68 c 0.26,14.91 7.94,31.61 22.3,46 23.54,23.59 44.5,14.24 61.14,-3.63 16.64,-17.87 22.72,-41.08 -0.89,-61.07 -16.8,-14.23 -33.34,-20.5 -47.49,-19.61 a 6.92,6.92 0 0 0 -1.72,-2.64 l -6.16,-7.16 a 356.27,356.27 0 0 0 88.13,-212.61 l 11,-1.32 a 7.05,7.05 0 0 0 3.51,-1 c 10.35,10.74 27.35,17.72 47.66,18.46 33.3,1.22 42.27,-19.91 42.27,-44.32 0,-24.41 -11.41,-45.53 -42.32,-44.08 z M 494.18,723.3 c -130.47,0 -236.24,-105.77 -236.24,-236.24 0,-130.47 105.77,-236.24 236.24,-236.24 130.47,0 236.24,105.77 236.24,236.24 0,130.47 -105.76,236.24 -236.24,236.24 z"
         id="path30-1-7"
         style="fill:#31414a;stroke:#ffffff;stroke-width:10px;stroke-miterlimit:10" />
      <g
         id="g1-3-4">
        <path
           class="cls-4"
           d="m 221.8,401.32 a 14.69,14.69 0 0 1 8,6.12 12,12 0 0 1 1.58,9.8 330,330 0 0 0 -7.16,37.88 l -10,-1.38 a 342.19,342.19 0 0 1 7.43,-39.28 c 0.36,-1.41 -0.5,-2.42 -2.59,-3 -2.09,-0.58 -3.32,-0.2 -3.68,1.25 -2.43,9.48 -4.43,19.22 -5.95,28.89 a 14,14 0 0 1 -5.48,9.3 12.81,12.81 0 0 1 -9.71,2.64 12.46,12.46 0 0 1 -8.85,-5.39 14.67,14.67 0 0 1 -2.39,-11.27 c 2.58,-14.49 5.71,-28.65 9.54,-42.87 l 9.69,3.14 c -3.71,13.79 -6.75,27.53 -9.25,41.59 -0.26,1.63 0.7,2.63 2.86,3 2.16,0.37 3.29,-0.27 3.55,-1.86 1.58,-10 3.65,-20.13 6.16,-30 a 11.83,11.83 0 0 1 6.38,-8.19 12.8,12.8 0 0 1 9.87,-0.37 z"
           id="path32-7-1"
           style="fill:#ffffff" />
        <path
           class="cls-4"
           d="m 223.45,342.29 c -3.58,7.18 -5.28,10.87 -8.46,18.44 L 245.41,375 c -1.47,3.49 -2.17,5.26 -3.54,8.85 L 211,370.66 c -3,7.78 -4.34,11.76 -6.86,19.93 l -9.62,-3.36 a 417.66,417.66 0 0 1 19.93,-49.89 z"
           id="path34-7-9"
           style="fill:#ffffff" />
        <path
           class="cls-4"
           d="m 282.61629,315.77 c -2.14,2.78 -3.19,4.2 -5.25,7.08 l -11.13,-8.52 a 228.46,228.46 0 0 0 -13.47,20.75 l -8.66,-5.54 a 236.52,236.52 0 0 1 13.94,-21.54 l -4.91,-3.76 q -2.66,-2 -3.91,-0.29 a 267.24,267.24 0 0 0 -15.29,24.12 q -1,1.85 1.8,3.59 l 25.95,15.87 c -1.78,3.18 -2.65,4.8 -4.33,8.08 l -26.44,-15 a 14.26,14.26 0 0 1 -6.67,-7.86 11.79,11.79 0 0 1 1,-10.1 276.05,276.05 0 0 1 15.76,-24.87 10.43,10.43 0 0 1 8.43,-4.78 13.84,13.84 0 0 1 9.5,3.39 z"
           id="path36-2-0"
           style="fill:#ffffff" />
        <path
           class="cls-4"
           d="m 311.58,281.34 c -3.46,3.1 -5.16,4.7 -8.49,8 a 242.74,242.74 0 0 0 -30.9,-3.47 231.32,231.32 0 0 1 16.68,-17.38 c 1.23,-1.18 0.83,-2.88 -1.22,-5.14 -2.05,-2.26 -3.72,-2.79 -5,-1.58 a 260.5,260.5 0 0 0 -20.52,21.76 l 25.31,22.63 c -2.25,2.65 -3.35,4 -5.53,6.74 L 248,284.44 a 340.43,340.43 0 0 1 28,-30.69 9.88,9.88 0 0 1 9.65,-2.56 17.05,17.05 0 0 1 8.92,5.83 18.87,18.87 0 0 1 4.58,9.67 9.8,9.8 0 0 1 -2.91,9 c -1,0.95 -1.49,1.43 -2.48,2.39 7.24,1.1 10.82,1.75 17.82,3.26 z"
           id="path38-6-9"
           style="fill:#ffffff" />
        <path
           class="cls-4"
           d="m 437.39,184.08 c -10.94,2.2 -21.51,4.7 -32.27,7.64 l 1.92,6.37 a 283.57,283.57 0 0 1 29.58,-7.1 l 2,10.16 A 274,274 0 0 0 410,208 l 4.91,16.29 c -3.18,0.93 -4.76,1.42 -7.91,2.44 l -14,-42.11 c 14,-4.29 28,-7.82 42.47,-10.72 z"
           id="path40-4-8"
           style="fill:#ffffff" />
        <path
           class="cls-4"
           d="m 481.49,213.14 a 289.48,289.48 0 0 0 -35.27,3.9 l -7.85,-43.65 c 3.78,-0.65 5.67,-1 9.47,-1.5 l 5,33.62 a 273.48,273.48 0 0 1 28.1,-2.7 z"
           id="path42-5-8"
           style="fill:#ffffff" />
        <path
           class="cls-4"
           d="m 526,180.22 c -11.12,-0.84 -22,-1.3 -33.13,-1.4 l 0.06,6.64 a 290.64,290.64 0 0 1 30.31,1.18 L 522.34,197 A 280.84,280.84 0 0 0 493,195.81 l 0.06,6.64 a 274.73,274.73 0 0 1 30.56,1.29 l -1,10.3 A 291.09,291.09 0 0 0 484.93,213 l -1.71,-44.29 c 14.7,-0.29 29.14,0.12 43.8,1.22 z"
           id="path44-2-5"
           style="fill:#ffffff" />
        <path
           class="cls-4"
           d="m 571.67,187.81 c -10.89,-2.42 -21.57,-4.42 -32.59,-6.1 l -0.92,6.58 a 286.37,286.37 0 0 1 29.84,5.48 l -2.44,10.07 a 276.71,276.71 0 0 0 -28.83,-5.3 l -0.92,6.58 a 270.59,270.59 0 0 1 30.07,5.62 l -2.5,10.05 a 287.19,287.19 0 0 0 -37.21,-6.41 L 531,170.31 c 14.6,1.8 28.83,4.25 43.19,7.44 z"
           id="path46-0-8"
           style="fill:#ffffff" />
        <path
           class="cls-4"
           d="m 618.29,203 c -6.64,-2.76 -10,-4 -16.79,-6.41 L 590,228.63 c -3.13,-1.09 -4.7,-1.61 -7.86,-2.61 l 10.51,-32.37 c -6.85,-2.16 -10.3,-3.15 -17.26,-4.92 l 2.63,-10 a 321.27,321.27 0 0 1 44.28,14.72 z"
           id="path48-2-4"
           style="fill:#ffffff" />
        <path
           class="cls-4"
           d="m 693.47,248.15 c -5.65,-4.68 -8.54,-6.91 -14.44,-11.2 l -19.86,27.68 c -2.72,-2 -4.09,-2.94 -6.87,-4.82 l 19,-28.26 c -6,-4.08 -9.08,-6 -15.31,-9.7 l 5.29,-8.93 A 300.05,300.05 0 0 1 700,240.09 Z"
           id="path50-9-3"
           style="fill:#ffffff" />
        <path
           class="cls-4"
           d="m 716.93,299.79 a 14.34,14.34 0 0 1 -9.86,3.81 11.34,11.34 0 0 1 -8.65,-3.79 212.44,212.44 0 0 0 -15.16,-15.35 11.45,11.45 0 0 1 -3.67,-8.7 15.13,15.13 0 0 1 3.74,-10 l 10.39,-12.56 a 13.32,13.32 0 0 1 9.41,-5.16 12.48,12.48 0 0 1 9.85,3.48 246.12,246.12 0 0 1 17.56,17.78 13.39,13.39 0 0 1 3.58,10.15 13.6,13.6 0 0 1 -4.95,9.7 z m -5.93,-6.95 11.91,-11 c 1.81,-1.67 1.86,-3.49 0.12,-5.4 a 238.28,238.28 0 0 0 -17,-17.22 c -1.87,-1.74 -3.63,-1.66 -5.26,0.2 L 690,271.59 c -1.63,1.85 -1.57,3.56 0.16,5.17 a 220.31,220.31 0 0 1 15.72,15.92 c 1.65,1.77 3.34,1.83 5.12,0.16 z"
           id="path52-0-7"
           style="fill:#ffffff" />
        <path
           class="cls-4"
           d="m 746.27,344.07 a 14.81,14.81 0 0 1 -9.77,2.1 9.63,9.63 0 0 1 -7.4,-4.8 217,217 0 0 0 -14,-21.08 9.86,9.86 0 0 1 -1.55,-8.74 16.42,16.42 0 0 1 5.5,-8.59 l 23.31,-19.77 c 2.53,3.16 3.77,4.77 6.21,8 l -23.9,19 q -2.63,2.09 -1.45,3.68 a 225.1,225.1 0 0 1 14.5,21.92 c 0.67,1.12 1.93,1.09 3.81,-0.11 l 25.66,-16.35 c 2.12,3.63 3.15,5.47 5.17,9.2 z"
           id="path54-99-1"
           style="fill:#ffffff" />
        <path
           class="cls-4"
           d="m 754.67,398.41 c -1.64,-5.11 -2.51,-7.62 -4.35,-12.55 5.08,-9.89 9.72,-19.71 14.16,-29.91 a 256.54,256.54 0 0 1 10,24.73 c 0.65,1.82 2.36,2.2 5.16,1.11 2.8,-1.09 3.88,-2.58 3.21,-4.46 -3.91,-10.38 -8,-20.36 -12.64,-30.45 l -29.74,15.77 c -1.61,-3.36 -2.43,-5 -4.13,-8.27 L 774.5,332.5 a 438.73,438.73 0 0 1 18.07,41.65 12.65,12.65 0 0 1 -1,11.29 15.67,15.67 0 0 1 -8.5,6.63 15.89,15.89 0 0 1 -10.51,0.24 11.14,11.14 0 0 1 -7.29,-7.27 c -0.52,-1.47 -0.79,-2.21 -1.32,-3.66 -3.57,6.97 -5.42,10.39 -9.28,17.03 z"
           id="path56-45-3"
           style="fill:#ffffff" />
        <path
           class="cls-4"
           d="m 780.79,455.63 a 13.47,13.47 0 0 1 -9.73,-2.33 12.71,12.71 0 0 1 -5.38,-8.74 320.19,320.19 0 0 0 -8.23,-37 l 9.69,-3.14 a 332,332 0 0 1 8.53,38.38 c 0.24,1.5 1.43,2.08 3.57,1.72 2.14,-0.36 3.09,-1.32 2.84,-2.85 -1.52,-9.67 -3.51,-19.41 -5.94,-28.9 a 13.24,13.24 0 0 1 1.46,-10.33 13.92,13.92 0 0 1 7.87,-6.37 12.46,12.46 0 0 1 10.1,0.74 12.68,12.68 0 0 1 6.42,8.62 c 3.41,14.58 6.13,29.08 8.29,43.89 l -10,1.38 c -2.09,-14.37 -4.73,-28.44 -8,-42.58 -0.39,-1.53 -1.64,-2 -3.76,-1.36 -2.12,0.64 -2.9,1.65 -2.52,3.15 2.52,9.84 4.59,19.93 6.17,30 a 13.67,13.67 0 0 1 -2.49,10.81 12.69,12.69 0 0 1 -8.89,4.91 z"
           id="path58-1-8"
           style="fill:#ffffff" />
        <path
           class="cls-3"
           d="m 328.79,239.09 c 0,0 6.41,-8.79 8.32,-14.73 1.91,-5.94 -1,-17.35 -1,-17.35 0,0 8.17,8.11 14.76,9.17 6.59,1.06 16.91,-0.23 16.91,-0.23 0,0 -6.56,9.26 -8.32,14.73 -1.76,5.47 1,17.35 1,17.35 0,0 -3.89,-5.81 -14.76,-9.17 -10.87,-3.36 -16.91,0.23 -16.91,0.23 z"
           id="path90-0-0"
           style="fill:#fba729" />
      </g>
      <path
         class="cls-4"
         d="m 558.7,334.73 c 0,0 6.45,-3.73 9.44,-7.29 2.99,-3.56 5,-13.18 5,-13.18 0,0 2,9.45 5.38,13 3.38,3.55 9.62,7 9.62,7 0,0 -6.69,4 -9.44,7.29 -2.75,3.29 -5,13.18 -5,13.18 0,0 -0.33,-5.94 -5.38,-13 -5.05,-7.06 -9.62,-7 -9.62,-7 z"
         id="path92-3-9"
         style="fill:#ffffff" />
      <path
         class="cls-4"
         d="m 358.7,416.73 c 0,0 6.45,-3.73 9.44,-7.29 2.99,-3.56 5,-13.18 5,-13.18 0,0 2,9.45 5.38,13 3.38,3.55 9.62,7 9.62,7 0,0 -6.69,4 -9.44,7.29 -2.75,3.29 -5,13.18 -5,13.18 0,0 -0.33,-5.94 -5.38,-13 -5.05,-7.06 -9.62,-7 -9.62,-7 z"
         id="path94-7-7"
         style="fill:#ffffff" />
      <path
         id="path2-9"
         d="M 184.3191,509.96045 A 313.51695,312.47882 85.296875 0 0 517.40337,801.52355 313.51695,312.47882 85.296875 0 0 807.83345,467.50563 313.51695,312.47882 85.296875 0 0 474.74918,175.94252 313.51695,312.47882 85.296875 0 0 184.3191,509.96045 Z"
         style="fill:none;stroke-width:1.15076" />
      <g
         id="text3-9"
         style="font-size:61.3333px;line-height:125%;font-family:Bitsumishi;-inkscape-font-specification:'Bitsumishi, Normal';letter-spacing:3px;word-spacing:-20px;fill:none;stroke:#000000;stroke-width:1px"
         aria-label="Cape Canaveral ✦  Starbase">
        <path
           style="letter-spacing:2.75px;fill:#ffffff;stroke:none"
           d="m 188.19119,544.45191 -3.11928,-24.21054 q -0.54861,-4.25813 1.86556,-7.59934 2.475,-3.34906 6.73313,-3.89767 l 11.49697,-1.48127 q 4.25813,-0.54862 7.44037,2.07156 3.24306,2.61234 3.79168,6.87047 l 3.11928,24.21054 -7.29966,0.94048 -3.11928,-24.21053 q -0.37619,-2.91987 -2.99191,-2.58286 l -11.49696,1.48127 q -2.61571,0.337 -2.23952,3.25687 l 3.11928,24.21054 z m 10.88028,43.19007 -1.91589,-7.10626 9.71188,-2.61839 -5.04518,-18.71314 7.10626,-1.9159 5.04518,18.71315 4.26376,-1.14953 q 2.30953,-0.62267 1.89442,-2.16236 l -5.42836,-20.1344 q -0.39915,-1.48047 -2.70868,-0.8578 l -21.0819,5.68381 -1.91589,-7.10626 21.0819,-5.68381 q 3.84922,-1.03777 7.27114,0.58059 3.43788,1.67758 4.45969,5.46758 l 5.42836,20.1344 q 1.03777,3.84922 -1.10688,6.96837 -2.12869,3.17836 -5.97791,4.21613 z m 36.51789,33.65337 q -3.88758,1.67227 -7.56929,0.71885 -4.09247,-0.97704 -5.71628,-4.75194 l -9.16117,-21.29719 -9.46542,4.07164 -2.90831,-6.76101 29.01601,-12.4815 12.06948,28.0582 q 1.62381,3.7749 -0.48131,7.41788 -1.89613,3.35279 -5.78371,5.02507 z m -2.90831,-6.76102 q 3.04246,-1.30874 2.41232,-2.77362 l -9.16117,-21.29719 -6.02857,2.59324 9.16117,21.29719 q 0.63014,1.46489 3.61625,0.18038 z m 24.4747,36.63058 -13.55568,-22.55137 -4.04768,2.43307 12.67092,21.07949 -6.30807,3.79179 -12.67093,-21.07948 -4.10025,2.46467 13.52408,22.4988 -6.30807,3.7918 -17.31588,-28.80688 27.07215,-16.27313 17.34748,28.85944 z m 12.96622,54.58305 -15.9401,-18.48765 q -2.80354,-3.25159 -2.62925,-7.37003 0.22074,-4.1585 3.47234,-6.96203 l 8.77931,-7.56955 q 3.2516,-2.80353 7.35084,-2.36974 4.14569,0.39375 6.94922,3.64534 l 15.9401,18.48765 -5.57416,4.80606 -15.9401,-18.48765 q -1.92243,-2.22966 -3.91984,-0.50749 l -8.77931,7.56955 q -1.99741,1.72217 -0.075,3.95183 l 15.9401,18.48765 z m 32.88632,30.03767 -5.5162,-4.87247 6.65904,-7.53882 -14.52602,-12.83084 4.87247,-5.51621 14.52602,12.83084 2.92348,-3.30973 q 1.58356,-1.79276 0.38838,-2.84847 L 296.7062,697.8946 q -1.14921,-1.0151 -2.73276,0.77767 l -14.455,16.36475 -5.51621,-4.87247 14.455,-16.36475 q 2.63925,-2.98795 6.38637,-3.52431 3.79309,-0.49575 6.73507,2.1029 l 15.62926,13.80534 q 2.98795,2.63925 2.9183,6.42392 -0.0237,3.82528 -2.66294,6.81323 z m 32.61823,22.32333 -6.11879,-4.09024 -3.92826,-28.22584 -11.8276,17.69348 -6.11878,-4.09024 17.55394,-26.25978 6.11878,4.09024 4.03051,28.07288 11.72535,-17.54051 6.11878,4.09023 z m 39.66541,20.25268 -6.6118,-3.23322 4.41873,-9.03612 -17.41106,-8.51415 3.23322,-6.61179 17.41106,8.51414 1.93993,-3.96707 q 1.0508,-2.14884 -0.38175,-2.84937 l -18.73342,-9.16079 q -1.37746,-0.67359 -2.42826,1.47525 l -9.59188,19.61499 -6.6118,-3.23322 9.59189,-19.61499 q 1.75132,-3.58139 5.2216,-5.09327 3.52537,-1.48494 7.05167,0.23945 l 18.73342,9.16079 q 3.58138,1.75132 4.51897,5.41868 0.99269,3.69431 -0.75864,7.27569 z m 50.1454,-16.25901 -25.1069,25.01166 -5.9449,-1.94823 -5.49188,-35.03932 7.80998,2.55944 3.82598,23.97291 17.09775,-17.1159 z m 32.573,13.7685 -25.85577,-4.87848 -0.87563,4.64078 24.16822,4.56007 -1.36461,7.23239 -24.16822,-4.56008 -0.887,4.70105 25.79551,4.86712 -1.36461,7.23238 -33.02789,-6.23173 5.85646,-31.03898 33.08815,6.2431 z m 38.28644,26.76887 -10.04594,-0.50572 -14.85154,-18.49541 18.92802,0.95286 q 2.02144,0.10176 2.18488,-3.1448 0.16343,-3.24655 -1.85801,-3.34831 l -22.78713,-1.14713 -1.21805,24.19602 -7.35069,-0.37004 1.58809,-31.54671 30.56661,1.53876 q 4.22665,0.21277 6.51036,3.64393 2.11536,3.11562 1.8995,7.40352 -0.21585,4.28791 -2.63342,7.17534 -2.61674,3.18446 -6.84339,2.97169 l -2.81776,-0.14185 z m 46.9245,-3.44483 -7.32749,0.6909 -0.94424,-10.01424 -19.29574,1.81939 -0.69091,-7.3275 19.29574,-1.81938 -0.41454,-4.3965 q -0.22455,-2.38144 -1.81217,-2.23174 l -20.76124,1.95757 q -1.52656,0.14394 -1.30202,2.52537 l 2.04969,21.73824 -7.32749,0.69091 -2.04969,-21.73824 q -0.37424,-3.96906 1.79765,-7.0693 2.23295,-3.10599 6.14095,-3.47448 l 20.76124,-1.95757 q 3.96906,-0.37424 6.68216,2.26539 2.77417,2.63388 3.14841,6.60294 z"
           id="path1-88-3" />
        <path
           style="letter-spacing:2.75px;word-spacing:-45px;fill:#ffffff;stroke:none"
           d="m 579.79139,791.16723 -30.78681,7.06318 -7.06318,-30.78682 7.17363,-1.64579 5.41739,23.61319 23.61318,-5.41739 z"
           id="path3-2" />
        <path
           style="font-size:33.3333px;letter-spacing:2.75px;word-spacing:-30px;fill:#fba729;stroke:none"
           d="m 581.27934,778.00846 q 2.38691,-0.81677 4.24732,-2.46833 1.76843,-1.56848 2.93864,-3.93 1.13982,-2.29952 1.2904,-4.72499 0.16598,-2.43075 -0.68241,-4.91006 0.82731,2.41771 2.39093,4.22221 1.56361,1.80449 3.99241,3.02049 2.24278,1.12483 4.73027,1.3058 2.46681,0.17084 4.86912,-0.6512 -2.40231,0.82204 -4.24733,2.46833 -1.85514,1.66696 -2.93863,3.93 -1.17467,2.44906 -1.30498,4.8332 -0.13032,2.38414 0.69699,4.80185 -0.84839,-2.47931 -2.46874,-4.2988 -1.60496,-1.82475 -3.9146,-2.94391 -2.37166,-1.14954 -4.73027,-1.30579 -2.48221,-0.16557 -4.86912,0.6512 z"
           id="path4-4" />
        <path
           style="word-spacing:-25px;fill:#ffffff;stroke:none"
           d="m 646.74778,752.85183 q 1.78368,3.56539 0.90673,7.1588 -0.98661,3.78543 -4.49715,5.54166 l -24.35435,12.18386 -3.29294,-6.58226 24.35435,-12.18386 q 1.37131,-0.68603 0.3011,-2.82526 -1.0702,-2.13923 -2.4415,-1.45321 l -17.71725,8.86349 q -3.51054,1.75623 -7.1315,0.27586 -3.42894,-1.37071 -5.21261,-4.93609 -1.78367,-3.56539 -0.82447,-7.26853 0.95921,-3.70314 4.46974,-5.45937 l 24.35436,-12.18386 3.29293,6.58225 -24.35435,12.18387 q -1.3713,0.68602 -0.3011,2.82526 1.04276,2.08438 2.41407,1.39835 l 17.71724,-8.86348 q 3.51054,-1.75624 7.1315,-0.27586 3.40153,1.453 5.1852,5.01838 z"
           id="path5-3" />
        <path
           style="fill:#ffffff;stroke:none"
           d="m 671.62991,718.84099 -11.74659,8.03065 13.67288,19.99958 -6.07583,4.15378 -13.67287,-19.99958 -11.74659,8.03065 -4.15378,-6.07582 29.569,-20.21508 z m 47.34364,-9.53732 -5.45004,4.94637 -6.76004,-7.44838 -14.35177,13.02545 -4.94638,-5.45004 14.35177,-13.02545 -2.96782,-3.27003 q -1.60757,-1.77126 -2.78842,-0.69954 l -15.44177,14.01472 q -1.13543,1.0305 0.47214,2.80176 l 14.67425,16.16845 -5.45004,4.94637 -14.67424,-16.16844 q -2.67929,-2.95211 -2.79994,-6.7355 -0.0752,-3.82461 2.83145,-6.46267 l 15.44178,-14.01473 q 2.9521,-2.67929 6.70611,-2.19348 3.79943,0.44459 6.47872,3.39669 z m 27.97271,-32.8499 -6.39744,7.76205 -23.70351,0.89016 12.05372,-14.62484 q 1.28729,-1.56187 -1.22118,-3.62934 -2.50847,-2.06746 -3.79576,-0.50559 l -14.51127,17.6066 18.69518,15.40847 -4.68105,5.67955 -24.37473,-20.08952 19.46539,-23.61746 q 2.6916,-3.26574 6.80775,-3.05245 3.76248,0.16024 7.07555,2.89085 3.31307,2.73062 4.18889,6.39324 0.99544,3.99966 -1.69616,7.2654 l -1.79441,2.17716 z m 10.06072,-45.59263 q 4.04609,-2.06913 8.24504,0.4694 3.04424,1.84044 3.96964,5.05172 1.04016,3.49567 -1.11759,7.06478 l -15.83411,26.19096 -27.03075,-16.34181 15.54852,-25.71858 q 2.15775,-3.56911 5.73644,-4.2724 3.24182,-0.62026 6.28606,1.22018 3.77906,2.28468 4.19675,6.33575 z m -5.82685,2.99934 q 0.82503,-1.36466 -1.22196,-2.6022 -2.04699,-1.23753 -2.87201,0.12713 l -11.74072,19.42015 4.09397,2.47507 z m 10.62551,5.77876 q 0.82502,-1.36466 -1.22197,-2.6022 -2.04699,-1.23753 -2.87201,0.12713 l -12.02631,19.89253 4.09398,2.47507 z m 28.91823,-44.82505 -2.86464,6.77963 -9.26549,-3.91501 -7.54355,17.85303 -6.77963,-2.86464 7.54355,-17.85303 -4.06778,-1.71878 q -2.20338,-0.93101 -2.82405,0.53791 l -8.11648,19.20896 q -0.5968,1.41242 1.60658,2.34343 l 20.1129,8.49842 -2.86464,6.77964 -20.1129,-8.49843 q -3.6723,-1.55168 -5.37277,-4.93354 -1.67661,-3.43836 -0.1488,-7.05416 l 8.11648,-19.20896 q 1.55168,-3.6723 5.16191,-4.81019 3.63411,-1.19439 7.30641,0.35729 z m 2.36361,-44.63821 q 3.8538,1.02063 5.96874,4.0552 2.18641,3.24384 1.18149,7.03835 l -6.97163,26.32447 -7.11472,-1.88422 6.97163,-26.32447 q 0.39255,-1.48223 -1.91974,-2.09461 -2.31228,-0.61237 -2.70483,0.86987 l -5.0717,19.15045 q -1.00492,3.79452 -4.51029,5.53098 -3.29609,1.66499 -7.1499,0.64437 -3.8538,-1.02062 -5.99663,-4.18947 -2.14282,-3.16885 -1.1379,-6.96337 l 6.97163,-26.32447 7.11472,1.88423 -6.97163,26.32446 q -0.39255,1.48224 1.91974,2.09461 2.25299,0.59667 2.64554,-0.88556 l 5.0717,-19.15046 q 1.00492,-3.79452 4.51029,-5.53098 3.33968,-1.59 7.19349,-0.56938 z m -9.13241,-39.94353 -3.30972,26.10299 4.68515,0.59405 3.0937,-24.3993 7.30154,0.92579 -3.0937,24.39931 4.746,0.60177 3.302,-26.04215 7.30154,0.92579 -4.2278,33.34369 -31.33576,-3.9732 4.23551,-33.40454 z"
           id="path6-7" />
      </g>
    </g>
  </g>
</svg>
