<?xml version="1.0" encoding="UTF-8" standalone="no"?>
<!-- Created with Inkscape (http://www.inkscape.org/) -->

<svg
   width="267.91119mm"
   height="50.986748mm"
   viewBox="0 0 267.91119 50.986748"
   version="1.1"
   id="svg1"
   inkscape:version="1.4.2 (ebf0e940d0, 2025-05-08)"
   sodipodi:docname="qm-logo.svg"
   xmlns:inkscape="http://www.inkscape.org/namespaces/inkscape"
   xmlns:sodipodi="http://sodipodi.sourceforge.net/DTD/sodipodi-0.dtd"
   xmlns="http://www.w3.org/2000/svg"
   xmlns:svg="http://www.w3.org/2000/svg">
  <sodipodi:namedview
     id="namedview1"
     pagecolor="#ffffff"
     bordercolor="#000000"
     borderopacity="0.25"
     inkscape:showpageshadow="2"
     inkscape:pageopacity="0.0"
     inkscape:pagecheckerboard="0"
     inkscape:deskcolor="#d1d1d1"
     inkscape:document-units="mm"
     inkscape:zoom="2.3307343"
     inkscape:cx="174.62308"
     inkscape:cy="68.43337"
     inkscape:window-width="1920"
     inkscape:window-height="1134"
     inkscape:window-x="0"
     inkscape:window-y="0"
     inkscape:window-maximized="1"
     inkscape:current-layer="layer1"
     showguides="true" />
  <defs
     id="defs1">
    <inkscape:path-effect
       effect="fillet_chamfer"
       id="path-effect5"
       is_visible="true"
       lpeversion="1"
       nodesatellites_param="F,0,0,1,0,0,0,1 @ F,0,0,1,0,0,0,1 @ F,0,0,1,0,0,0,1 @ F,0,0,1,0,0,0,1 @ F,0,0,1,0,0,0,1 @ F,0,0,1,0,5.3260301,0,1 @ F,0,0,1,0,0,0,1 @ F,0,0,1,0,5.2182162,0,1"
       radius="0"
       unit="px"
       method="auto"
       mode="F"
       chamfer_steps="1"
       flexible="false"
       use_knot_distance="true"
       apply_no_radius="true"
       apply_with_radius="true"
       only_selected="false"
       hide_knots="false" />
    <inkscape:path-effect
       effect="fillet_chamfer"
       id="path-effect4"
       is_visible="true"
       lpeversion="1"
       nodesatellites_param="F,0,0,1,0,0,0,1 @ F,0,0,1,0,0,0,1 @ F,0,0,1,0,0,0,1 @ F,0,0,1,0,0,0,1 @ F,0,0,1,0,0,0,1 @ C,0,0,1,0,1.329451,0,1 @ F,0,0,1,0,0,0,1 @ F,0,0,1,0,0,0,1"
       radius="0"
       unit="px"
       method="auto"
       mode="F"
       chamfer_steps="1"
       flexible="false"
       use_knot_distance="true"
       apply_no_radius="true"
       apply_with_radius="true"
       only_selected="false"
       hide_knots="false" />
  </defs>
  <g
     inkscape:label="Capa 1"
     inkscape:groupmode="layer"
     id="layer1"
     transform="translate(-11.448036,-96.559914)">
    <path
       sodipodi:type="star"
       style="opacity:0.39675193;fill:#ececec;fill-opacity:1;stroke:none;stroke-width:4.00081;stroke-linecap:butt;stroke-linejoin:bevel;stroke-dasharray:none;paint-order:stroke fill markers"
       id="path12"
       inkscape:flatsided="false"
       sodipodi:sides="24"
       sodipodi:cx="16.906414"
       sodipodi:cy="31.701536"
       sodipodi:r1="33.340801"
       sodipodi:r2="23.376176"
       sodipodi:arg1="0.92615081"
       sodipodi:arg2="1.0570505"
       inkscape:rounded="0"
       inkscape:randomized="0"
       d="M 36.941406,58.351266 28.394472,52.060077 29.361273,62.628636 22.733847,54.339704 20.932361,64.798376 16.676093,55.076578 12.229088,64.71262 10.634035,54.220482 3.8445666,62.377213 5.0194294,51.829756 -3.6498112,57.95131 0.21490193,48.067326 -9.7433162,51.736528 -3.4521266,43.189594 -14.020686,44.156395 -5.7317542,37.52897 -16.190425,35.727483 -6.4686281,31.471216 -16.10467,27.02421 -5.6125315,25.429157 -13.769263,18.639689 -3.221806,19.814552 -9.3433599,11.145311 0.5406245,15.010024 -3.128578,5.0518059 5.4183565,11.342996 4.4515555,0.77443597 11.078981,9.0633679 12.880467,-1.3953032 17.136735,8.326494 21.58374,-1.3095475 23.178793,9.1825906 29.968261,1.025859 l -1.174862,10.547457 8.66924,-6.1215538 -3.864713,9.8839848 9.958218,-3.669203 -6.291189,8.546935 10.568559,-0.966801 -8.288932,6.627425 10.458671,1.801486 -9.721797,4.256268 9.636042,4.447005 -10.492138,1.595053 8.156731,6.789469 -10.547457,-1.174863 6.121554,8.66924 -9.883984,-3.864713 z"
       transform="matrix(0.57563315,0,0,0.57563315,27.209514,103.80483)" />
    <path
       style="font-size:25.1166px;line-height:1.4;font-family:Audiowide;-inkscape-font-specification:Audiowide;letter-spacing:0px;fill:#f2f2f2;stroke-width:5.08547;stroke-linejoin:bevel;paint-order:stroke fill markers"
       d="m 84.172335,126.20508 q 0,1.22639 -0.331127,2.31789 -0.318864,1.07922 -0.919798,1.96223 -0.58867,0.88301 -1.434884,1.54526 -0.833949,0.66225 -1.864122,1.04244 l 3.728245,2.95561 h -4.623515 l -3.065991,-2.46505 h -3.139575 q -1.582052,0 -2.931088,-0.53962 -1.349036,-0.55188 -2.330153,-1.53299 -0.981117,-0.98112 -1.54526,-2.33016 -0.551878,-1.34903 -0.551878,-2.95561 v -3.36033 q 0,-1.59432 0.551878,-2.94335 0.564143,-1.3613 1.54526,-2.33015 0.981117,-0.98112 2.330153,-1.533 1.349036,-0.55188 2.931088,-0.55188 h 4.316916 q 1.582051,0 2.918823,0.55188 1.349036,0.55188 2.330154,1.533 0.981117,0.96885 1.532995,2.33015 0.551879,1.34903 0.551879,2.94335 z m -3.188631,-3.36033 q 0,-0.94433 -0.306599,-1.70469 -0.294336,-0.77263 -0.846214,-1.31225 -0.539614,-0.55187 -1.312244,-0.84621 -0.760366,-0.3066 -1.680163,-0.3066 h -4.316916 q -0.932061,0 -1.704691,0.3066 -0.760366,0.29434 -1.312244,0.84621 -0.551879,0.53962 -0.858478,1.31225 -0.294335,0.76036 -0.294335,1.70469 v 3.36033 q 0,0.94432 0.294335,1.71695 0.306599,0.76037 0.858478,1.31225 0.551878,0.53961 1.312244,0.84621 0.77263,0.29433 1.704691,0.29433 h 4.292388 q 0.932061,0 1.692427,-0.29433 0.77263,-0.3066 1.324508,-0.84621 0.551878,-0.55188 0.846214,-1.31225 0.306599,-0.77263 0.306599,-1.71695 z m 20.480826,8.86685 q 0,0.34339 -0.12264,0.63772 -0.12264,0.29434 -0.3434,0.51509 -0.20848,0.20849 -0.50282,0.33113 -0.28207,0.12264 -0.613196,0.12264 h -7.211212 q -0.58867,0 -1.263188,-0.13491 -0.662254,-0.1349 -1.312244,-0.42924 -0.649991,-0.3066 -1.263189,-0.76036 -0.600934,-0.46603 -1.054701,-1.11602 -0.453766,-0.66226 -0.735838,-1.52073 -0.269807,-0.85848 -0.269807,-1.93771 v -7.35838 h 3.188631 v 7.35838 q 0,0.62546 0.208487,1.12828 0.220752,0.49056 0.588671,0.84622 0.367919,0.35565 0.858477,0.55188 0.502823,0.18396 1.079229,0.18396 h 5.580104 v -10.06872 h 3.188636 z m 16.67899,-2.78392 q 0,0.66225 -0.23302,1.43488 -0.23301,0.76037 -0.76036,1.42262 -0.51509,0.64999 -1.36131,1.09149 -0.83394,0.44151 -2.03581,0.44151 h -5.7518 q -0.66226,0 -1.43489,-0.23302 -0.76036,-0.23301 -1.42262,-0.7481 -0.64999,-0.52735 -1.09149,-1.3613 -0.4415,-0.84621 -0.4415,-2.04808 0,-0.66226 0.23301,-1.43489 0.23302,-0.77263 0.74811,-1.42262 0.52735,-0.66225 1.3613,-1.10375 0.84621,-0.44151 2.04808,-0.44151 h 5.7518 v 3.04147 h -5.7518 q -0.64999,0 -1.00565,0.40471 -0.35565,0.39244 -0.35565,0.98111 0,0.62547 0.40471,0.98112 0.41697,0.34339 0.98112,0.34339 h 5.72727 q 0.64999,0 1.00564,-0.39244 0.35566,-0.39245 0.35566,-0.98112 v -4.45182 q 0,-0.62546 -0.39245,-0.99338 -0.38018,-0.36792 -0.96885,-0.36792 h -7.00273 v -3.0292 h 7.00273 q 0.66225,0 1.42262,0.23302 0.77263,0.23301 1.42262,0.76036 0.66225,0.51509 1.10375,1.3613 0.44151,0.83395 0.44151,2.03582 z m 14.32431,-5.67822 h -7.17442 q -0.64999,0 -0.98112,0.33113 -0.33112,0.31886 -0.33112,0.94432 v 8.79327 h -3.18864 v -8.79327 q 0,-0.82168 0.20849,-1.47167 0.20849,-0.64999 0.55188,-1.14055 0.35566,-0.50282 0.80942,-0.84621 0.45377,-0.35566 0.94433,-0.57641 0.50282,-0.22075 1.00564,-0.31886 0.51509,-0.11038 0.95659,-0.11038 h 7.19895 z m 14.15261,0 h -5.56784 v 10.06872 h -3.22542 v -10.06872 h -4.14522 v -3.18863 h 4.14522 v -4.32918 h 3.22542 v 4.32918 h 5.56784 z m 16.31108,1.20187 q 0,0.66225 -0.23302,1.43488 -0.23301,0.76037 -0.76036,1.42262 -0.51509,0.64999 -1.36131,1.0915 -0.83394,0.4415 -2.03581,0.4415 h -5.7518 v -3.0292 h 5.7518 q 0.64999,0 1.00564,-0.39245 0.35566,-0.40471 0.35566,-0.99338 0,-0.62546 -0.40471,-0.98112 -0.39245,-0.35565 -0.95659,-0.35565 h -5.7518 q -0.64999,0 -1.00565,0.40471 -0.35565,0.39245 -0.35565,0.98112 v 4.45182 q 0,0.63772 0.39244,0.99338 0.40471,0.35565 0.99339,0.35565 h 5.72727 v 3.04147 h -5.7518 q -0.66226,0 -1.43489,-0.23302 -0.76036,-0.23301 -1.42262,-0.7481 -0.64999,-0.52735 -1.09149,-1.3613 -0.4415,-0.84621 -0.4415,-2.04808 v -4.47635 q 0,-0.66225 0.23301,-1.42262 0.23302,-0.77263 0.7481,-1.42262 0.52736,-0.66225 1.36131,-1.10376 0.84621,-0.4415 2.04808,-0.4415 h 5.7518 q 0.66225,0 1.42262,0.23302 0.77263,0.23301 1.42262,0.76036 0.66225,0.51509 1.10375,1.3613 0.44151,0.83395 0.44151,2.03582 z m 13.7479,-1.20187 H 169.505 q -0.64999,0 -0.98111,0.33113 -0.33113,0.31886 -0.33113,0.94432 v 8.79327 h -3.18863 v -8.79327 q 0,-0.82168 0.20849,-1.47167 0.20848,-0.64999 0.55187,-1.14055 0.35566,-0.50282 0.80943,-0.84621 0.45376,-0.35566 0.94432,-0.57641 0.50282,-0.22075 1.00565,-0.31886 0.51508,-0.11038 0.95659,-0.11038 h 7.19894 z m 13.93186,10.06872 h -3.18863 v -8.79327 q 0,-0.62546 -0.33112,-0.94432 -0.33113,-0.33113 -0.98112,-0.33113 h -4.14522 v 10.06872 h -3.18863 v -11.6753 q 0,-0.33113 0.12264,-0.6132 0.12264,-0.29433 0.34339,-0.50282 0.22075,-0.22075 0.51508,-0.34339 0.29434,-0.12264 0.62547,-0.12264 h 5.7518 q 0.66225,0 1.42262,0.23302 0.76036,0.23301 1.44714,0.7481 v -0.98112 h 4.31692 q 0.45377,0 0.95659,0.11038 0.50282,0.0981 0.99338,0.31886 0.50282,0.22075 0.95659,0.57641 0.45377,0.34339 0.79716,0.84621 0.34339,0.49056 0.55188,1.14055 0.20848,0.64999 0.20848,1.47167 v 8.79327 h -3.18863 v -8.79327 q 0,-0.62546 -0.31886,-0.94432 -0.3066,-0.33113 -0.95659,-0.33113 h -2.86977 q 0.15943,0.58867 0.15943,1.27545 z m 23.79209,-4.3905 q 0,0.66225 -0.23301,1.43488 -0.23302,0.76037 -0.76037,1.42262 -0.51508,0.64999 -1.3613,1.09149 -0.83395,0.44151 -2.03582,0.44151 h -5.7518 q -0.66225,0 -1.43488,-0.23302 -0.76037,-0.23301 -1.42262,-0.7481 -0.64999,-0.52735 -1.09149,-1.3613 -0.4415,-0.84621 -0.4415,-2.04808 0,-0.66226 0.23301,-1.43489 0.23302,-0.77263 0.7481,-1.42262 0.52735,-0.66225 1.3613,-1.10375 0.84622,-0.44151 2.04808,-0.44151 h 5.7518 v 3.04147 h -5.7518 q -0.64999,0 -1.00564,0.40471 -0.35566,0.39244 -0.35566,0.98111 0,0.62547 0.40472,0.98112 0.41697,0.34339 0.98111,0.34339 h 5.72727 q 0.64999,0 1.00565,-0.39244 0.35565,-0.39245 0.35565,-0.98112 v -4.45182 q 0,-0.62546 -0.39244,-0.99338 -0.38019,-0.36792 -0.96886,-0.36792 h -7.00272 v -3.0292 h 7.00272 q 0.66226,0 1.42262,0.23302 0.77263,0.23301 1.42262,0.76036 0.66226,0.51509 1.10376,1.3613 0.4415,0.83395 0.4415,2.03582 z m 15.53846,-0.0859 q 0,0.82168 -0.20849,1.48394 -0.20849,0.64999 -0.55188,1.15281 -0.34339,0.49056 -0.79716,0.84622 -0.45376,0.34339 -0.95659,0.56414 -0.49055,0.22075 -1.00564,0.33112 -0.50282,0.0981 -0.95659,0.0981 h -8.63383 v -3.18863 h 8.6093 q 0.64999,0 0.98112,-0.33113 0.33113,-0.33113 0.33113,-0.95659 -0.0613,-1.27545 -1.28772,-1.27545 h -4.94238 q -1.0547,0 -1.79054,-0.36792 -0.73583,-0.36792 -1.20187,-0.9198 -0.45376,-0.55188 -0.66225,-1.1896 -0.19622,-0.63773 -0.19622,-1.18961 0,-1.06696 0.38018,-1.79054 0.38018,-0.73584 0.95659,-1.1896 0.57641,-0.45377 1.25092,-0.64999 0.67452,-0.20849 1.26319,-0.20849 h 7.83668 v 3.18863 h -7.81215 q -0.24528,0 -0.39245,0.0613 -0.1349,0.0491 -0.20848,0.14717 -0.0613,0.0859 -0.0736,0.19622 -0.0123,0.0981 -0.0123,0.19623 0.0123,0.19622 0.0736,0.30659 0.0613,0.11038 0.14717,0.15944 0.0981,0.0491 0.20849,0.0613 0.12264,0 0.23301,0 h 4.94238 q 1.2264,0 2.08487,0.4415 0.85848,0.4415 1.38583,1.11602 0.52735,0.66225 0.76037,1.44715 0.24528,0.78489 0.24528,1.45941 z m 14.06676,-5.59237 h -5.56784 v 10.06872 h -3.22542 v -10.06872 h -4.14522 v -3.18863 h 4.14522 v -4.32918 h 3.22542 v 4.32918 h 5.56784 z m 16.31108,1.20187 q 0,0.66225 -0.23302,1.43488 -0.23301,0.76037 -0.76036,1.42262 -0.51509,0.64999 -1.3613,1.0915 -0.83395,0.4415 -2.03582,0.4415 h -5.7518 v -3.0292 h 5.7518 q 0.64999,0 1.00564,-0.39245 0.35566,-0.40471 0.35566,-0.99338 0,-0.62546 -0.40471,-0.98112 -0.39245,-0.35565 -0.95659,-0.35565 h -5.7518 q -0.64999,0 -1.00564,0.40471 -0.35566,0.39245 -0.35566,0.98112 v 4.45182 q 0,0.63772 0.39245,0.99338 0.40471,0.35565 0.99338,0.35565 h 5.72727 v 3.04147 h -5.7518 q -0.66225,0 -1.43488,-0.23302 -0.76037,-0.23301 -1.42262,-0.7481 -0.64999,-0.52735 -1.0915,-1.3613 -0.4415,-0.84621 -0.4415,-2.04808 v -4.47635 q 0,-0.66225 0.23302,-1.42262 0.23301,-0.77263 0.7481,-1.42262 0.52735,-0.66225 1.3613,-1.10376 0.84621,-0.4415 2.04808,-0.4415 h 5.7518 q 0.66225,0 1.42262,0.23302 0.77263,0.23301 1.42262,0.76036 0.66225,0.51509 1.10376,1.3613 0.4415,0.83395 0.4415,2.03582 z m 13.7479,-1.20187 h -7.17442 q -0.64999,0 -0.98112,0.33113 -0.33113,0.31886 -0.33113,0.94432 v 8.79327 h -3.18863 v -8.79327 q 0,-0.82168 0.20849,-1.47167 0.20849,-0.64999 0.55188,-1.14055 0.35565,-0.50282 0.80942,-0.84621 0.45377,-0.35566 0.94433,-0.57641 0.50282,-0.22075 1.00564,-0.31886 0.51509,-0.11038 0.95659,-0.11038 h 7.19895 z"
       id="text1"
       aria-label="Quartermaster" />
    <path
       id="rect5"
       style="opacity:1;fill:#fda801;fill-opacity:1;stroke-width:2.91656;stroke-linejoin:bevel;paint-order:stroke fill markers"
       d="m 36.941406,96.559914 a 25.493502,25.493502 0 0 1 -25.49337,25.493366 25.493502,25.493502 0 0 1 25.49337,25.49338 25.493502,25.493502 0 0 1 25.49337,-25.49338 25.493502,25.493502 0 0 1 -25.49337,-25.493366 z" />
    <path
       d="m 65.340929,111.07048 q 0,0.86785 -0.520708,1.48202 -0.560763,0.64087 -1.415259,0.64087 h -5.928066 v -1.60218 h 5.928066 q 0.333787,0 0.333787,-0.52071 0,-0.52071 -0.333787,-0.52071 h -4.312535 q -0.854496,0 -1.415259,-0.64087 -0.53406,-0.60082 -0.53406,-1.46867 0,-0.86784 0.547412,-1.49536 0.547411,-0.62753 1.401907,-0.62753 h 5.928066 v 1.60218 h -5.928066 q -0.333787,0 -0.333787,0.52071 0,0.50736 0.333787,0.50736 h 4.312535 q 0.854496,0 1.415259,0.64087 0.520708,0.61417 0.520708,1.48202 z m 8.464845,-3.15096 h -3.097548 v 5.27385 h -1.60218 v -5.27385 h -3.097548 v -1.60218 h 7.797276 z m 8.99892,5.27385 h -1.60218 v -2.18965 H 76.98344 v -1.60218 h 4.219074 v -0.96131 q 0,-0.52071 -0.347139,-0.52071 h -4.539509 q -0.333788,0 -0.333788,0.52071 v 4.75314 h -1.60218 v -4.75314 q 0,-0.86784 0.53406,-1.49536 0.547412,-0.62753 1.401908,-0.62753 h 4.539509 q 0.867848,0 1.401908,0.62753 0.547411,0.62752 0.547411,1.49536 z m 8.731879,0 h -2.189646 l -3.431335,-3.85859 h 4.125613 q 0.440599,0 0.440599,-0.70763 0,-0.70763 -0.440599,-0.70763 h -4.966758 v 5.27385 h -1.60218 v -6.87603 h 6.662398 q 0.921254,0 1.455314,0.72099 0.494005,0.65422 0.494005,1.58882 0,0.93461 -0.494005,1.58883 -0.53406,0.72098 -1.455314,0.72098 h -0.614169 z m 7.263213,-2.63025 h -6.04823 v -1.61553 h 6.04823 z m 7.997554,-2.6436 h -5.71444 v 1.02807 h 5.35395 v 1.60218 h -5.35395 v 2.6436 h -1.615535 v -6.87603 h 7.329975 z m 7.37003,5.27385 h -6.87602 v -6.87603 h 1.60218 v 5.27385 h 5.27384 z m 7.99756,-5.27385 h -5.7278 v 1.02807 h 5.35395 v 1.60218 h -5.35395 v 1.04142 h 5.71445 v 1.60218 h -7.31663 v -6.87603 h 7.32998 z m 7.99756,0 h -5.72779 v 1.02807 h 5.35395 v 1.60218 h -5.35395 v 1.04142 h 5.71444 v 1.60218 h -7.31662 v -6.87603 h 7.32997 z m 8.46486,0 h -3.09755 v 5.27385 h -1.60218 v -5.27385 h -3.09755 v -1.60218 h 7.79728 z m 2.49674,-1.58882 -0.78774,3.48474 h -1.13488 v -3.48474 z m 8.8654,4.73978 q 0,0.86785 -0.52071,1.48202 -0.56076,0.64087 -1.41526,0.64087 h -5.92806 v -1.60218 h 5.92806 q 0.33379,0 0.33379,-0.52071 0,-0.52071 -0.33379,-0.52071 h -4.31253 q -0.8545,0 -1.41526,-0.64087 -0.53406,-0.60082 -0.53406,-1.46867 0,-0.86784 0.54741,-1.49536 0.54741,-0.62753 1.40191,-0.62753 h 5.92806 v 1.60218 h -5.92806 q -0.33379,0 -0.33379,0.52071 0,0.50736 0.33379,0.50736 h 4.31253 q 0.8545,0 1.41526,0.64087 0.52071,0.61417 0.52071,1.48202 z"
       id="text12"
       style="font-size:13.3515px;line-height:1.4;font-family:Bitsumishi;-inkscape-font-specification:Bitsumishi;letter-spacing:0px;fill:#cccccc;stroke-width:2.70332;stroke-linejoin:bevel;paint-order:stroke fill markers"
       aria-label="STAR-FLEET'S" />
    <text
       xml:space="preserve"
       style="font-style:normal;font-variant:normal;font-weight:normal;font-stretch:normal;font-size:13.3515px;line-height:1.4;font-family:Bitsumishi;-inkscape-font-specification:Bitsumishi;text-align:start;letter-spacing:0px;writing-mode:lr-tb;direction:ltr;text-anchor:start;opacity:1;fill:#19232d;fill-opacity:1;stroke-width:2.70332;stroke-linejoin:bevel;paint-order:stroke fill markers"
       x="28.843727"
       y="125.49129"
       id="text2"><tspan
         sodipodi:role="line"
         id="tspan2"
         style="font-style:normal;font-variant:normal;font-weight:normal;font-stretch:normal;font-size:13.3515px;font-family:Bitsumishi;-inkscape-font-specification:Bitsumishi;fill:#19232d;fill-opacity:1;stroke-width:2.70332"
         x="28.843727"
         y="125.49129">SF</tspan></text>
  </g>
</svg>
