<svg xmlns="http://www.w3.org/2000/svg" id="Layer_1" data-name="Layer 1" viewBox="0 0 980 980"><defs id="defs4"><style id="style2">.cls-3{fill:#fba729}.cls-4,.cls-5{fill:#fff}.cls-5{stroke:#000;stroke-linecap:round;stroke-linejoin:round;stroke-width:4px}</style></defs><title id="title6">Star Fleet Logo</title><path id="rect8" d="M251.053 242.244h485.235v489.639H251.053z" style="fill:#19222c;stroke-width:.49738"/><path id="path10" d="M282.67 520.86c17.67-4.7 38 4.64 46 21.1 8.26-18.39 38.86-20 49-2.59 3.64-24.51 9.08-52 29.79-65.59 18.67-12.27 43.16-8.79 65.15-4.84 11.63 2.09 23.7 4.36 33.23 11.33s15.66 20.13 10.82 30.9a34.75 34.75 0 0 1 50 40.84c20.66 6.7 35 29 32.51 50.61 15.08-13.08 39.21-14.25 55.5-2.71-11.48-17.94-.81-45.68 19.74-51.29-4.21-18.63 8.71-39.42 27.27-43.9 13.77 1.3 23.93 14.74 25.9 28.43s-2.42 27.44-7.36 40.35c-21.31 55.79-61.8 108.3-114.52 136.35-29.85 15.89-67.74 30.72-102.13 29.61-34.86-1.12-66.09 1.81-104.38-15.85-13.3-6.13-27.19-10.45-37.06-18.09C351.22 697.08 331.8 685 322.3 675c-25.54-26.89-119.14-133-39.63-154.14" style="fill:#fc5533"/><path id="path12" d="M297.56 559.78c17-3.83 36.63 3.78 44.31 17.2 8-15 37.43-16.3 47.2-2.11 3.51-20 8.74-42.35 28.69-53.44 18-10 41.56-7.16 62.74-3.94 11.2 1.7 22.82 3.55 32 9.23s15.08 16.4 10.42 25.18c11.62-5.47 27.13-4.3 37.43 2.81s14.76 19.73 10.75 30.46c19.9 5.46 33.72 23.66 31.31 41.24 14.53-10.65 37.76-11.61 53.45-2.2-11.06-14.62-.78-37.22 19-41.79-4.05-15.18 8.38-32.12 26.26-35.77 13.26 1.06 23 12 24.94 23.16s-2.33 22.35-7.09 32.88c-20.56 45.44-59.56 88.22-110.33 111.08-28.75 12.94-65.24 25-98.37 24.13-33.57-.91-63.65 1.47-100.53-12.92-12.81-5-26.19-8.52-35.69-14.74-10.51-6.88-29.21-16.71-38.36-24.86C311.13 663.47 221 577 297.56 559.78" class="cls-3"/><path id="path14" d="M309.77 601.09c16.33-2.92 35.14 2.88 42.5 13.09 7.63-11.41 35.9-12.41 45.28-1.61 3.36-15.21 8.39-32.24 27.52-40.69 17.25-7.61 39.87-5.45 60.19-3 10.74 1.29 21.9 2.7 30.7 7s14.47 12.49 10 19.17c11.15-4.16 26-3.28 35.91 2.14s14.16 15 10.32 23.2c19.09 4.15 32.35 18 30 31.4 13.93-8.11 36.23-8.84 51.27-1.68-10.61-11.13-.75-28.34 18.24-31.82-3.89-11.56 8-24.45 25.19-27.23 12.72.81 22.11 9.15 23.93 17.64s-2.23 17-6.8 25c-19.73 34.6-57.13 67.18-105.84 84.58-27.58 9.86-62.59 19.06-94.36 18.37-32.2-.7-61.06 1.12-96.43-9.84-12.29-3.81-25.12-6.49-34.23-11.22-10.08-5.24-28-12.72-36.8-18.93-23.58-16.66-110.05-82.45-36.59-95.57" class="cls-4"/><path id="path16" d="m507.46 732-18.21-.14c-5.28 0-9.62-6.94-9.66-15.33-3.79-121.73-9.92-242.43-1.26-305 2-9.23 4.25-15.23 9.53-15.19l18.21.14c5.28 0 9.62 6.94 9.66 15.33 7.07.11 7.6 184 1.26 305 .01 8.36-4.25 15.19-9.53 15.19" class="cls-5"/><path id="path18" d="M497.91 352.08c8.06-2 21.13 55 18.81 60.09l-18.56-.17-18.57-.14c-2.13-3.4 10.22-57.74 18.32-59.78" class="cls-5"/><path id="path20" d="m474.38 732.79-15.24-.11c-4.41 0-8-4.67-8.07-10.3-4.56-79.41-7.26-154-.85-204.66 0-5.63 3.57-10.21 8-10.18l15.24.11c4.41 0 8 4.67 8.07 10.3 3.86 53.69 3 126.72.85 204.66 0 5.63-3.59 10.21-8 10.18" class="cls-5"/><path id="path22" d="M465.81 477.9c6.75-1.36 17.64 36.92 15.7 40.34l-15.51-.12-15.55-.12c-1.79-2.3 8.55-38.74 15.36-40.1" class="cls-5"/><path id="path24" d="m539 733.27-15.24-.11c-4.41 0-8-4.67-8.07-10.3-1.76-81.7-3.44-162.74-.85-204.66 0-5.63 3.57-10.21 8-10.18l15.24.11c4.41 0 8 4.67 8.07 10.3 8.36 32.7 3.53 123.4.85 204.66 0 5.63-3.56 10.21-8 10.18" class="cls-5"/><path id="path26" d="M530.47 478.38c6.75-1.36 17.64 36.92 15.7 40.34l-15.53-.12-15.53-.12c-1.79-2.29 8.58-38.74 15.36-40.1" class="cls-5"/><path id="path28" d="M309.77 632.09c16.33-2.92 35.14 2.88 42.5 13.09 7.63-11.41 35.9-12.41 45.28-1.61 3.36-15.21 8.39-32.24 27.52-40.69 17.25-7.61 39.87-5.45 60.19-3 10.74 1.29 21.9 2.7 30.7 7s14.47 12.49 10 19.17c11.15-4.16 26-3.28 35.91 2.14s14.16 15 10.32 23.2c19.09 4.15 32.35 18 30 31.4 13.93-8.11 36.23-8.84 51.27-1.68-10.61-11.13-.75-28.34 18.24-31.82-3.89-11.56 8-24.45 25.19-27.23 12.72.81 22.11 9.15 23.93 17.64s-2.23 17-6.8 25c-19.73 34.6-57.13 67.18-105.84 84.58-27.58 9.86-62.59 19.06-94.36 18.37-32.2-.7-61.06 1.12-96.43-9.84-12.29-3.81-25.12-6.49-34.23-11.22-10.08-5.24-28-12.72-36.8-18.93-23.58-16.66-110.05-82.45-36.59-95.57" style="fill:#fff;opacity:.8"/><path id="path30" d="M915.87 440.21c-22 1-38.37 7.71-48.12 18a6.9 6.9 0 0 0-3.06-.76l-11.7-1.3a356.28 356.28 0 0 0-86.76-202.43l12.93-18.65a7.06 7.06 0 0 0 1.6-3.28c14.9-.61 31.41-8.69 45.45-23.38 23-24.09 13.18-44.83-5.07-61s-41.6-21.74-61 2.34c-13.83 17.13-19.71 33.81-18.48 47.94a6.9 6.9 0 0 0-2.6 1.78l-14.86 13.4a356.15 356.15 0 0 0-198.28-80.41L523.56 113a7.06 7.06 0 0 0-1-3.51c10.74-10.35 17.72-27.35 18.46-47.66 1.22-33.3-19.91-42.27-44.32-42.27s-45.54 11.37-44.09 42.27c1 22 7.71 38.37 18 48.12a6.9 6.9 0 0 0-.76 3.06l-2.16 19.42A356.35 356.35 0 0 0 257.51 223l-17.71-11.24a7.06 7.06 0 0 0-3.34-1.47c-1.22-14.87-10-31-25.2-44.47-25-22-45.33-11.36-60.78 7.54s-20 42.45 4.8 60.89c17.68 13.13 34.58 18.32 48.65 16.53a6.9 6.9 0 0 0 1.89 2.52l11.73 12a356.05 356.05 0 0 0-77 190.36l-16.83 2a7.06 7.06 0 0 0-3.51 1c-10.35-10.74-27.35-17.72-47.66-18.46-33.35-1.2-42.33 19.9-42.33 44.32s11.37 45.54 42.28 44.08c22-1 38.37-7.71 48.12-18a6.9 6.9 0 0 0 3.06.76l16.09 1.79A356.14 356.14 0 0 0 220.17 716L211 727.32a7.06 7.06 0 0 0-1.85 3.14c-14.91-.53-32 6.26-47.11 19.84-24.79 22.26-16.57 43.69.4 61.25s39.82 24.85 61 2.33c15.1-16 22.23-32.21 22.09-46.39a6.9 6.9 0 0 0 2.73-1.58l11.46-8.85a356.3 356.3 0 0 0 208.51 88.64l1.86 15.4a7.06 7.06 0 0 0 1 3.51C460.35 875 453.37 892 452.62 912.29c-1.22 33.3 19.91 42.27 44.32 42.27s45.54-11.36 44.09-42.27c-1-22-7.71-38.37-18-48.12a6.9 6.9 0 0 0 .76-3.06l1.71-15.42a356.15 356.15 0 0 0 199.81-81.39l9.89 7.21a7.06 7.06 0 0 0 3.24 1.68c.26 14.91 7.94 31.61 22.3 46 23.54 23.59 44.5 14.24 61.14-3.63s22.72-41.08-.89-61.07c-16.8-14.23-33.34-20.5-47.49-19.61a6.9 6.9 0 0 0-1.72-2.64l-6.16-7.16a356.27 356.27 0 0 0 88.13-212.61l11-1.32a7.05 7.05 0 0 0 3.51-1c10.35 10.74 27.35 17.72 47.66 18.46 33.3 1.22 42.27-19.91 42.27-44.32s-11.41-45.53-42.32-44.08ZM494.18 723.3c-130.47 0-236.24-105.77-236.24-236.24s105.77-236.24 236.24-236.24 236.24 105.77 236.24 236.24S624.66 723.3 494.18 723.3Z" style="fill:#31414a;stroke:#fff;stroke-miterlimit:10;stroke-width:10px"/><g id="g1"><path id="path32" d="M221.8 401.32a14.7 14.7 0 0 1 8 6.12 12 12 0 0 1 1.58 9.8 330 330 0 0 0-7.16 37.88l-10-1.38a342 342 0 0 1 7.43-39.28c.36-1.41-.5-2.42-2.59-3s-3.32-.2-3.68 1.25c-2.43 9.48-4.43 19.22-5.95 28.89a14 14 0 0 1-5.48 9.3 12.8 12.8 0 0 1-9.71 2.64 12.46 12.46 0 0 1-8.85-5.39 14.67 14.67 0 0 1-2.39-11.27c2.58-14.49 5.71-28.65 9.54-42.87l9.69 3.14c-3.71 13.79-6.75 27.53-9.25 41.59-.26 1.63.7 2.63 2.86 3s3.29-.27 3.55-1.86c1.58-10 3.65-20.13 6.16-30a11.83 11.83 0 0 1 6.38-8.19 12.8 12.8 0 0 1 9.87-.37" class="cls-4"/><path id="path34" d="M223.45 342.29c-3.58 7.18-5.28 10.87-8.46 18.44L245.41 375c-1.47 3.49-2.17 5.26-3.54 8.85L211 370.66c-3 7.78-4.34 11.76-6.86 19.93l-9.62-3.36a418 418 0 0 1 19.93-49.89Z" class="cls-4"/><path id="path36" d="M282.616 315.77c-2.14 2.78-3.19 4.2-5.25 7.08l-11.13-8.52a229 229 0 0 0-13.47 20.75l-8.66-5.54a237 237 0 0 1 13.94-21.54l-4.91-3.76q-2.66-2-3.91-.29a267 267 0 0 0-15.29 24.12q-1 1.85 1.8 3.59l25.95 15.87c-1.78 3.18-2.65 4.8-4.33 8.08l-26.44-15a14.26 14.26 0 0 1-6.67-7.86 11.79 11.79 0 0 1 1-10.1 276 276 0 0 1 15.76-24.87 10.43 10.43 0 0 1 8.43-4.78 13.84 13.84 0 0 1 9.5 3.39z" class="cls-4"/><path id="path38" d="M311.58 281.34c-3.46 3.1-5.16 4.7-8.49 8a243 243 0 0 0-30.9-3.47 231 231 0 0 1 16.68-17.38c1.23-1.18.83-2.88-1.22-5.14s-3.72-2.79-5-1.58a261 261 0 0 0-20.52 21.76l25.31 22.63c-2.25 2.65-3.35 4-5.53 6.74L248 284.44a340 340 0 0 1 28-30.69 9.88 9.88 0 0 1 9.65-2.56 17.05 17.05 0 0 1 8.92 5.83 18.87 18.87 0 0 1 4.58 9.67 9.8 9.8 0 0 1-2.91 9c-1 .95-1.49 1.43-2.48 2.39 7.24 1.1 10.82 1.75 17.82 3.26" class="cls-4"/><path id="path40" d="M437.39 184.08c-10.94 2.2-21.51 4.7-32.27 7.64l1.92 6.37a284 284 0 0 1 29.58-7.1l2 10.16A274 274 0 0 0 410 208l4.91 16.29c-3.18.93-4.76 1.42-7.91 2.44l-14-42.11c14-4.29 28-7.82 42.47-10.72Z" class="cls-4"/><path id="path42" d="M481.49 213.14a290 290 0 0 0-35.27 3.9l-7.85-43.65c3.78-.65 5.67-1 9.47-1.5l5 33.62a274 274 0 0 1 28.1-2.7Z" class="cls-4"/><path id="path44" d="M526 180.22c-11.12-.84-22-1.3-33.13-1.4l.06 6.64a291 291 0 0 1 30.31 1.18l-.9 10.36a281 281 0 0 0-29.34-1.19l.06 6.64a275 275 0 0 1 30.56 1.29l-1 10.3a291 291 0 0 0-37.69-1.04l-1.71-44.29c14.7-.29 29.14.12 43.8 1.22Z" class="cls-4"/><path id="path46" d="M571.67 187.81a488 488 0 0 0-32.59-6.1l-.92 6.58a286 286 0 0 1 29.84 5.48l-2.44 10.07a277 277 0 0 0-28.83-5.3l-.92 6.58a271 271 0 0 1 30.07 5.62l-2.5 10.05a287 287 0 0 0-37.21-6.41l4.83-44.07c14.6 1.8 28.83 4.25 43.19 7.44Z" class="cls-4"/><path id="path48" d="M618.29 203c-6.64-2.76-10-4-16.79-6.41L590 228.63c-3.13-1.09-4.7-1.61-7.86-2.61l10.51-32.37c-6.85-2.16-10.3-3.15-17.26-4.92l2.63-10a321 321 0 0 1 44.28 14.72Z" class="cls-4"/><path id="path50" d="M693.47 248.15c-5.65-4.68-8.54-6.91-14.44-11.2l-19.86 27.68c-2.72-2-4.09-2.94-6.87-4.82l19-28.26c-6-4.08-9.08-6-15.31-9.7l5.29-8.93A300 300 0 0 1 700 240.09Z" class="cls-4"/><path id="path52" d="M716.93 299.79a14.34 14.34 0 0 1-9.86 3.81 11.34 11.34 0 0 1-8.65-3.79 212 212 0 0 0-15.16-15.35 11.45 11.45 0 0 1-3.67-8.7 15.13 15.13 0 0 1 3.74-10l10.39-12.56a13.32 13.32 0 0 1 9.41-5.16 12.48 12.48 0 0 1 9.85 3.48 246 246 0 0 1 17.56 17.78 13.4 13.4 0 0 1 3.58 10.15 13.6 13.6 0 0 1-4.95 9.7Zm-5.93-6.95 11.91-11c1.81-1.67 1.86-3.49.12-5.4a238 238 0 0 0-17-17.22c-1.87-1.74-3.63-1.66-5.26.2L690 271.59c-1.63 1.85-1.57 3.56.16 5.17a220 220 0 0 1 15.72 15.92c1.65 1.77 3.34 1.83 5.12.16" class="cls-4"/><path id="path54" d="M746.27 344.07a14.8 14.8 0 0 1-9.77 2.1 9.63 9.63 0 0 1-7.4-4.8 217 217 0 0 0-14-21.08 9.86 9.86 0 0 1-1.55-8.74 16.42 16.42 0 0 1 5.5-8.59l23.31-19.77c2.53 3.16 3.77 4.77 6.21 8l-23.9 19q-2.63 2.09-1.45 3.68a225 225 0 0 1 14.5 21.92c.67 1.12 1.93 1.09 3.81-.11l25.66-16.35c2.12 3.63 3.15 5.47 5.17 9.2Z" class="cls-4"/><path id="path56" d="M754.67 398.41c-1.64-5.11-2.51-7.62-4.35-12.55 5.08-9.89 9.72-19.71 14.16-29.91a257 257 0 0 1 10 24.73c.65 1.82 2.36 2.2 5.16 1.11s3.88-2.58 3.21-4.46c-3.91-10.38-8-20.36-12.64-30.45l-29.74 15.77c-1.61-3.36-2.43-5-4.13-8.27l38.16-21.88a439 439 0 0 1 18.07 41.65 12.65 12.65 0 0 1-1 11.29 15.67 15.67 0 0 1-8.5 6.63 15.9 15.9 0 0 1-10.51.24 11.14 11.14 0 0 1-7.29-7.27c-.52-1.47-.79-2.21-1.32-3.66-3.57 6.97-5.42 10.39-9.28 17.03" class="cls-4"/><path id="path58" d="M780.79 455.63a13.47 13.47 0 0 1-9.73-2.33 12.7 12.7 0 0 1-5.38-8.74 320 320 0 0 0-8.23-37l9.69-3.14a332 332 0 0 1 8.53 38.38c.24 1.5 1.43 2.08 3.57 1.72s3.09-1.32 2.84-2.85c-1.52-9.67-3.51-19.41-5.94-28.9a13.24 13.24 0 0 1 1.46-10.33 13.92 13.92 0 0 1 7.87-6.37 12.46 12.46 0 0 1 10.1.74 12.68 12.68 0 0 1 6.42 8.62c3.41 14.58 6.13 29.08 8.29 43.89l-10 1.38a521 521 0 0 0-8-42.58c-.39-1.53-1.64-2-3.76-1.36s-2.9 1.65-2.52 3.15a324 324 0 0 1 6.17 30 13.67 13.67 0 0 1-2.49 10.81 12.7 12.7 0 0 1-8.89 4.91" class="cls-4"/><path id="path90" d="M328.79 239.09s6.41-8.79 8.32-14.73-1-17.35-1-17.35 8.17 8.11 14.76 9.17 16.91-.23 16.91-.23-6.56 9.26-8.32 14.73 1 17.35 1 17.35-3.89-5.81-14.76-9.17-16.91.23-16.91.23" class="cls-3"/></g><path id="path92" d="M558.7 334.73s6.45-3.73 9.44-7.29 5-13.18 5-13.18 2 9.45 5.38 13 9.62 7 9.62 7-6.69 4-9.44 7.29-5 13.18-5 13.18-.33-5.94-5.38-13-9.62-7-9.62-7" class="cls-4"/><path id="path94" d="M358.7 416.73s6.45-3.73 9.44-7.29 5-13.18 5-13.18 2 9.45 5.38 13 9.62 7 9.62 7-6.69 4-9.44 7.29-5 13.18-5 13.18-.33-5.94-5.38-13-9.62-7-9.62-7" class="cls-4"/><path id="path2" d="M184.32 509.96a313.517 312.479 85.297 0 0 333.083 291.564 313.517 312.479 85.297 0 0 290.43-334.018A313.517 312.479 85.297 0 0 474.75 175.943 313.517 312.479 85.297 0 0 184.32 509.96" style="fill:none;stroke-width:1.15076"/><g id="text3" aria-label="Cape Canaveral ✦ Starbase" style="font-size:61.3333px;line-height:125%;font-family:Bitsumishi;-inkscape-font-specification:&quot;Bitsumishi, Normal&quot;;letter-spacing:3px;word-spacing:-20px;fill:none;stroke:#000;stroke-width:1px"><path id="path1" d="m188.191 544.452-3.12-24.21q-.548-4.259 1.866-7.6 2.475-3.349 6.734-3.898l11.497-1.48q4.258-.55 7.44 2.07 3.243 2.613 3.792 6.871l3.119 24.21-7.3.941-3.119-24.21q-.376-2.92-2.992-2.583l-11.497 1.481q-2.616.337-2.24 3.257l3.12 24.21zm10.88 43.19-1.915-7.106 9.711-2.619-5.045-18.713 7.107-1.916 5.045 18.713 4.263-1.15q2.31-.622 1.895-2.161l-5.428-20.135q-.4-1.48-2.71-.858l-21.081 5.684-1.916-7.106 21.082-5.684q3.85-1.038 7.271.58 3.438 1.678 4.46 5.468l5.428 20.135q1.038 3.849-1.107 6.968-2.128 3.178-5.978 4.216zm36.518 33.653q-3.887 1.673-7.569.72-4.092-.978-5.716-4.753l-9.161-21.297-9.466 4.072-2.908-6.761 29.016-12.482 12.07 28.058q1.623 3.775-.482 7.418-1.896 3.353-5.784 5.025m-2.908-6.76q3.043-1.31 2.412-2.774l-9.16-21.297-6.03 2.593 9.162 21.297q.63 1.465 3.616.18m24.475 36.63L243.6 628.614l-4.048 2.433 12.671 21.08-6.308 3.79-12.67-21.079-4.1 2.465 13.523 22.499-6.308 3.792-17.316-28.807 27.072-16.273 17.348 28.86zm12.966 54.583-15.94-18.488q-2.804-3.251-2.63-7.37.221-4.158 3.473-6.962l8.78-7.57q3.25-2.803 7.35-2.369 4.146.394 6.95 3.645l15.94 18.488-5.575 4.806-15.94-18.488q-1.922-2.23-3.92-.507l-8.779 7.57q-1.997 1.722-.075 3.951l15.94 18.488zm32.886 30.038-5.516-4.873 6.66-7.539-14.527-12.83 4.873-5.517 14.526 12.831 2.923-3.31q1.584-1.792.388-2.848l-15.629-13.805q-1.149-1.016-2.733.777l-14.455 16.365-5.516-4.872 14.455-16.365q2.64-2.988 6.387-3.525 3.793-.495 6.735 2.103l15.629 13.806q2.988 2.639 2.918 6.424-.023 3.825-2.663 6.813zm32.619 22.323-6.12-4.09-3.928-28.226-11.827 17.693-6.119-4.09 17.554-26.26 6.119 4.09 4.03 28.073 11.726-17.54 6.118 4.09zm39.665 20.253-6.612-3.234 4.419-9.036-17.411-8.514 3.233-6.612 17.411 8.515 1.94-3.968q1.05-2.148-.382-2.849l-18.733-9.16q-1.378-.674-2.428 1.475l-9.592 19.615-6.612-3.234 9.592-19.615q1.751-3.581 5.221-5.093 3.526-1.485 7.052.24l18.733 9.16q3.582 1.752 4.52 5.419.992 3.694-.76 7.276zm50.145-16.26-25.107 25.012-5.944-1.948-5.492-35.04 7.81 2.56 3.826 23.973 17.097-17.116zm32.573 13.77-25.855-4.88-.876 4.641 24.168 4.56-1.364 7.233-24.169-4.56-.887 4.7 25.796 4.868-1.365 7.232-33.028-6.231 5.857-31.04 33.088 6.244zm38.287 26.768-10.046-.506-14.852-18.495 18.928.953q2.022.101 2.185-3.145t-1.858-3.348l-22.787-1.148-1.218 24.197-7.35-.37 1.587-31.547 30.567 1.539q4.227.212 6.51 3.643 2.116 3.116 1.9 7.404t-2.634 7.175q-2.616 3.185-6.843 2.972l-2.818-.142zm46.924-3.445-7.327.691-.944-10.014-19.296 1.82-.691-7.328 19.296-1.82-.415-4.396q-.224-2.382-1.812-2.232l-20.761 1.958q-1.527.144-1.302 2.525l2.05 21.738-7.328.691-2.05-21.738q-.374-3.97 1.798-7.07 2.233-3.105 6.14-3.474l20.762-1.957q3.97-.375 6.682 2.265 2.774 2.634 3.149 6.603z" style="letter-spacing:2.75px;fill:#fff;stroke:none"/><path id="path3" d="m579.792 791.167-30.787 7.063-7.063-30.786 7.173-1.646 5.418 23.613 23.613-5.417z" style="letter-spacing:2.75px;word-spacing:-45px;fill:#fff;stroke:none"/><path id="path4" d="M581.28 778.008q2.387-.816 4.247-2.468 1.769-1.569 2.939-3.93 1.14-2.3 1.29-4.725.166-2.43-.682-4.91.827 2.418 2.39 4.222 1.565 1.805 3.993 3.02 2.243 1.125 4.73 1.306 2.467.171 4.87-.65-2.403.821-4.248 2.467-1.855 1.667-2.938 3.93-1.175 2.45-1.305 4.834t.697 4.802q-.849-2.48-2.469-4.3-1.605-1.824-3.915-2.943-2.371-1.15-4.73-1.306-2.482-.165-4.869.651" style="font-size:33.3333px;letter-spacing:2.75px;word-spacing:-30px;fill:#fba729;stroke:none"/><path id="path5" d="M646.749 752.851q1.783 3.566.907 7.16-.987 3.785-4.498 5.54l-24.354 12.185-3.293-6.583 24.354-12.183q1.372-.687.302-2.826t-2.442-1.453l-17.717 8.864q-3.51 1.756-7.132.276-3.429-1.371-5.212-4.937-1.784-3.565-.825-7.268t4.47-5.46l24.354-12.183 3.293 6.582-24.354 12.184q-1.371.686-.301 2.825 1.043 2.084 2.414 1.398l17.717-8.863q3.51-1.756 7.132-.276 3.401 1.453 5.185 5.018" style="word-spacing:-25px;fill:#fff;stroke:none"/><path id="path6" d="m671.631 718.84-11.746 8.03 13.672 20-6.075 4.154-13.673-20-11.747 8.031-4.154-6.075 29.57-20.216zm47.344-9.538-5.45 4.947-6.76-7.449-14.352 13.026-4.946-5.45 14.351-13.026-2.967-3.27q-1.608-1.77-2.789-.7l-15.442 14.016q-1.135 1.03.473 2.801l14.674 16.169-5.45 4.946-14.674-16.168q-2.68-2.952-2.8-6.736-.076-3.824 2.831-6.462l15.442-14.015q2.952-2.68 6.706-2.194 3.8.445 6.479 3.397zm27.973-32.85-6.398 7.762-23.703.89L728.9 670.48q1.288-1.561-1.22-3.629-2.51-2.067-3.797-.506l-14.51 17.607 18.695 15.409-4.681 5.68-24.375-20.09 19.465-23.618q2.692-3.266 6.808-3.052 3.762.16 7.075 2.89t4.19 6.394q.995 4-1.697 7.265l-1.794 2.177zm10.06-45.593q4.046-2.07 8.245.47 3.045 1.84 3.97 5.05 1.04 3.497-1.118 7.066l-15.833 26.19-27.031-16.34 15.548-25.72q2.158-3.569 5.736-4.272 3.242-.62 6.286 1.22 3.78 2.285 4.197 6.336m-5.827 3q.825-1.365-1.222-2.603-2.047-1.237-2.872.127l-11.74 19.42 4.094 2.475zm10.626 5.778q.825-1.365-1.222-2.602-2.047-1.238-2.872.127l-12.026 19.892 4.094 2.476zm28.918-44.826-2.865 6.78-9.265-3.915-7.544 17.853-6.78-2.865 7.544-17.853-4.068-1.718q-2.203-.931-2.824.538l-8.116 19.209q-.597 1.412 1.607 2.343l20.113 8.498-2.865 6.78-20.113-8.498q-3.672-1.552-5.373-4.934-1.676-3.438-.149-7.054l8.117-19.209q1.551-3.672 5.162-4.81 3.634-1.195 7.306.357zm2.363-44.638q3.854 1.02 5.969 4.055 2.186 3.243 1.182 7.038l-6.972 26.325-7.115-1.885 6.972-26.324q.392-1.482-1.92-2.095-2.312-.612-2.705.87l-5.071 19.15q-1.005 3.795-4.51 5.532-3.297 1.665-7.15.644t-5.997-4.19-1.138-6.963l6.971-26.324 7.115 1.884-6.971 26.325q-.393 1.482 1.92 2.094 2.252.597 2.645-.885l5.071-19.15q1.005-3.795 4.51-5.532 3.34-1.59 7.194-.57m-9.133-39.944-3.31 26.103 4.686.594 3.093-24.4 7.302.926-3.093 24.4 4.746.601 3.301-26.042 7.302.926-4.227 33.343-31.336-3.972 4.235-33.405z" style="fill:#fff;stroke:none"/></g></svg>
