<?xml version="1.0" encoding="UTF-8" standalone="no"?>
<svg
   id="Layer_1"
   data-name="Layer 1"
   viewBox="0 0 980 980"
   version="1.1"
   sodipodi:docname="star-fleet-logo-v2.svg"
   inkscape:version="1.4 (86a8ad7, 2024-10-11)"
   inkscape:export-filename="C:\Users\C. A. M. Gerlach\Documents\dev\StarFleetTours\Logos\star-fleet-logo-512px.png"
   inkscape:export-xdpi="50.192036"
   inkscape:export-ydpi="50.192036"
   xmlns:inkscape="http://www.inkscape.org/namespaces/inkscape"
   xmlns:sodipodi="http://sodipodi.sourceforge.net/DTD/sodipodi-0.dtd"
   xmlns:xlink="http://www.w3.org/1999/xlink"
   xmlns="http://www.w3.org/2000/svg"
   xmlns:svg="http://www.w3.org/2000/svg"
   xmlns:rdf="http://www.w3.org/1999/02/22-rdf-syntax-ns#"
   xmlns:cc="http://creativecommons.org/ns#"
   xmlns:dc="http://purl.org/dc/elements/1.1/">
  <metadata
     id="metadata99">
    <rdf:RDF>
      <cc:Work
         rdf:about="">
        <dc:format>image/svg+xml</dc:format>
        <dc:type
           rdf:resource="http://purl.org/dc/dcmitype/StillImage" />
        <dc:title>Star Fleet Logo</dc:title>
      </cc:Work>
    </rdf:RDF>
  </metadata>
  <sodipodi:namedview
     pagecolor="#ffffff"
     bordercolor="#666666"
     borderopacity="1"
     objecttolerance="10"
     gridtolerance="10"
     guidetolerance="10"
     inkscape:pageopacity="0"
     inkscape:pageshadow="2"
     inkscape:window-width="1920"
     inkscape:window-height="1147"
     id="namedview97"
     showgrid="false"
     inkscape:zoom="0.96326531"
     inkscape:cx="549.17373"
     inkscape:cy="572.53178"
     inkscape:window-x="-8"
     inkscape:window-y="-8"
     inkscape:window-maximized="1"
     inkscape:current-layer="Layer_1"
     inkscape:showpageshadow="0"
     inkscape:pagecheckerboard="0"
     inkscape:deskcolor="#505050"
     showguides="false">
    <sodipodi:guide
       position="345.69915,497.26695"
       orientation="0,-1"
       id="guide1"
       inkscape:locked="false" />
    <sodipodi:guide
       position="499.34322,652.98729"
       orientation="1,0"
       id="guide2"
       inkscape:locked="false" />
    <sodipodi:guide
       position="181.67373,636.37712"
       orientation="1,0"
       id="guide7"
       inkscape:locked="false" />
    <sodipodi:guide
       position="227.35169,530.48729"
       orientation="1,0"
       id="guide8"
       inkscape:locked="false" />
    <sodipodi:guide
       position="767.1822,449.51271"
       orientation="1,0"
       id="guide9"
       inkscape:locked="false" />
    <sodipodi:guide
       position="812.86017,451.58898"
       orientation="1,0"
       id="guide10"
       inkscape:locked="false" />
  </sodipodi:namedview>
  <defs
     id="defs4">
    <style
       id="style2">.cls-1{fill:#19222c;}.cls-2{fill:#fc5533;}.cls-3{fill:#fba729;}.cls-4,.cls-5,.cls-6{fill:#fff;}.cls-5{stroke:#000;stroke-linecap:round;stroke-linejoin:round;stroke-width:4px;}.cls-6{opacity:0.8;}.cls-7{fill:#31414a;stroke:#fff;stroke-miterlimit:10;stroke-width:10px;}</style>
  </defs>
  <title
     id="title6">Star Fleet Logo</title>
  <rect
     class="cls-1"
     width="485.23502"
     height="489.63943"
     id="rect8"
     x="251.05287"
     y="242.244"
     style="fill:#19222c;stroke-width:0.49738" />
  <path
     class="cls-2"
     d="M282.67,520.86c17.67-4.7,38,4.64,46,21.1,8.26-18.39,38.86-20,49-2.59,3.64-24.51,9.08-52,29.79-65.59,18.67-12.27,43.16-8.79,65.15-4.84,11.63,2.09,23.7,4.36,33.23,11.33s15.66,20.13,10.82,30.9a34.75,34.75,0,0,1,50,40.84c20.66,6.7,35,29,32.51,50.61,15.08-13.08,39.21-14.25,55.5-2.71-11.48-17.94-.81-45.68,19.74-51.29-4.21-18.63,8.71-39.42,27.27-43.9,13.77,1.3,23.93,14.74,25.9,28.43s-2.42,27.44-7.36,40.35C698.91,629.29,658.42,681.8,605.7,709.85c-29.85,15.89-67.74,30.72-102.13,29.61-34.86-1.12-66.09,1.81-104.38-15.85-13.3-6.13-27.19-10.45-37.06-18.09C351.22,697.08,331.8,685,322.3,675,296.76,648.11,203.16,542,282.67,520.86Z"
     id="path10" />
  <path
     class="cls-3"
     d="M297.56,559.78c17-3.83,36.63,3.78,44.31,17.2,8-15,37.43-16.3,47.2-2.11,3.51-20,8.74-42.35,28.69-53.44,18-10,41.56-7.16,62.74-3.94,11.2,1.7,22.82,3.55,32,9.23s15.08,16.4,10.42,25.18c11.62-5.47,27.13-4.3,37.43,2.81s14.76,19.73,10.75,30.46c19.9,5.46,33.72,23.66,31.31,41.24,14.53-10.65,37.76-11.61,53.45-2.2-11.06-14.62-.78-37.22,19-41.79-4.05-15.18,8.38-32.12,26.26-35.77,13.26,1.06,23,12,24.94,23.16s-2.33,22.35-7.09,32.88c-20.56,45.44-59.56,88.22-110.33,111.08-28.75,12.94-65.24,25-98.37,24.13-33.57-.91-63.65,1.47-100.53-12.92-12.81-5-26.19-8.52-35.69-14.74-10.51-6.88-29.21-16.71-38.36-24.86C311.13,663.47,221,577,297.56,559.78Z"
     id="path12" />
  <path
     class="cls-4"
     d="M309.77,601.09c16.33-2.92,35.14,2.88,42.5,13.09,7.63-11.41,35.9-12.41,45.28-1.61,3.36-15.21,8.39-32.24,27.52-40.69,17.25-7.61,39.87-5.45,60.19-3,10.74,1.29,21.9,2.7,30.7,7s14.47,12.49,10,19.17c11.15-4.16,26-3.28,35.91,2.14s14.16,15,10.32,23.2c19.09,4.15,32.35,18,30,31.4,13.93-8.11,36.23-8.84,51.27-1.68-10.61-11.13-.75-28.34,18.24-31.82-3.89-11.56,8-24.45,25.19-27.23,12.72.81,22.11,9.15,23.93,17.64s-2.23,17-6.8,25c-19.73,34.6-57.13,67.18-105.84,84.58-27.58,9.86-62.59,19.06-94.36,18.37-32.2-.7-61.06,1.12-96.43-9.84-12.29-3.81-25.12-6.49-34.23-11.22-10.08-5.24-28-12.72-36.8-18.93C322.78,680,236.31,614.21,309.77,601.09Z"
     id="path14" />
  <path
     class="cls-5"
     d="M507.46,732l-18.21-.14c-5.28,0-9.62-6.94-9.66-15.33-3.79-121.73-9.92-242.43-1.26-305,2-9.23,4.25-15.23,9.53-15.19l18.21.14c5.28,0,9.62,6.94,9.66,15.33,7.07.11,7.6,184,1.26,305C517,725.17,512.74,732,507.46,732Z"
     id="path16" />
  <path
     class="cls-5"
     d="M497.91,352.08c8.06-2,21.13,55,18.81,60.09L498.16,412l-18.57-.14C477.46,408.46,489.81,354.12,497.91,352.08Z"
     id="path18" />
  <path
     class="cls-5"
     d="M474.38,732.79l-15.24-.11c-4.41,0-8-4.67-8.07-10.3-4.56-79.41-7.26-154-.85-204.66,0-5.63,3.57-10.21,8-10.18l15.24.11c4.41,0,8,4.67,8.07,10.3,3.86,53.69,3,126.72.85,204.66C482.38,728.24,478.79,732.82,474.38,732.79Z"
     id="path20" />
  <path
     class="cls-5"
     d="M465.81,477.9c6.75-1.36,17.64,36.92,15.7,40.34L466,518.12,450.45,518C448.66,515.7,459,479.26,465.81,477.9Z"
     id="path22" />
  <path
     class="cls-5"
     d="M539,733.27l-15.24-.11c-4.41,0-8-4.67-8.07-10.3-1.76-81.7-3.44-162.74-.85-204.66,0-5.63,3.57-10.21,8-10.18l15.24.11c4.41,0,8,4.67,8.07,10.3,8.36,32.7,3.53,123.4.85,204.66C547,728.72,543.44,733.3,539,733.27Z"
     id="path24" />
  <path
     class="cls-5"
     d="M530.47,478.38c6.75-1.36,17.64,36.92,15.7,40.34l-15.53-.12-15.53-.12C513.32,516.19,523.69,479.74,530.47,478.38Z"
     id="path26" />
  <path
     class="cls-6"
     d="M309.77,632.09c16.33-2.92,35.14,2.88,42.5,13.09,7.63-11.41,35.9-12.41,45.28-1.61,3.36-15.21,8.39-32.24,27.52-40.69,17.25-7.61,39.87-5.45,60.19-3,10.74,1.29,21.9,2.7,30.7,7s14.47,12.49,10,19.17c11.15-4.16,26-3.28,35.91,2.14s14.16,15,10.32,23.2c19.09,4.15,32.35,18,30,31.4,13.93-8.11,36.23-8.84,51.27-1.68-10.61-11.13-.75-28.34,18.24-31.82-3.89-11.56,8-24.45,25.19-27.23,12.72.81,22.11,9.15,23.93,17.64s-2.23,17-6.8,25c-19.73,34.6-57.13,67.18-105.84,84.58-27.58,9.86-62.59,19.06-94.36,18.37-32.2-.7-61.06,1.12-96.43-9.84-12.29-3.81-25.12-6.49-34.23-11.22-10.08-5.24-28-12.72-36.8-18.93C322.78,711,236.31,645.21,309.77,632.09Z"
     id="path28" />
  <path
     class="cls-7"
     d="M915.87,440.21c-22,1-38.37,7.71-48.12,18a6.92,6.92,0,0,0-3.06-.76l-11.7-1.3a356.28,356.28,0,0,0-86.76-202.43l12.93-18.65a7.06,7.06,0,0,0,1.6-3.28c14.9-.61,31.41-8.69,45.45-23.38,23-24.09,13.18-44.83-5.07-61s-41.6-21.74-61,2.34c-13.83,17.13-19.71,33.81-18.48,47.94a6.92,6.92,0,0,0-2.6,1.78l-14.86,13.4a356.15,356.15,0,0,0-198.28-80.41L523.56,113a7.06,7.06,0,0,0-1-3.51c10.74-10.35,17.72-27.35,18.46-47.66,1.22-33.3-19.91-42.27-44.32-42.27s-45.54,11.37-44.09,42.27c1,22,7.71,38.37,18,48.12a6.92,6.92,0,0,0-.76,3.06l-2.16,19.42A356.35,356.35,0,0,0,257.51,223L239.8,211.76a7.06,7.06,0,0,0-3.34-1.47c-1.22-14.87-10-31-25.2-44.47-25-22-45.33-11.36-60.78,7.54s-20,42.45,4.8,60.89c17.68,13.13,34.58,18.32,48.65,16.53a6.93,6.93,0,0,0,1.89,2.52l11.73,12a356.05,356.05,0,0,0-77,190.36l-16.83,2a7.06,7.06,0,0,0-3.51,1c-10.35-10.74-27.35-17.72-47.66-18.46C39.2,439,30.22,460.1,30.22,484.52S41.59,530.06,72.5,528.6c22-1,38.37-7.71,48.12-18a6.92,6.92,0,0,0,3.06.76l16.09,1.79A356.14,356.14,0,0,0,220.17,716L211,727.32a7.06,7.06,0,0,0-1.85,3.14c-14.91-.53-32,6.26-47.11,19.84-24.79,22.26-16.57,43.69.4,61.25s39.82,24.85,61,2.33c15.1-16,22.23-32.21,22.09-46.39a6.92,6.92,0,0,0,2.73-1.58l11.46-8.85a356.3,356.3,0,0,0,208.51,88.64l1.86,15.4a7.06,7.06,0,0,0,1,3.51C460.35,875,453.37,892,452.62,912.29c-1.22,33.3,19.91,42.27,44.32,42.27s45.54-11.36,44.09-42.27c-1-22-7.71-38.37-18-48.12a6.93,6.93,0,0,0,.76-3.06l1.71-15.42A356.15,356.15,0,0,0,725.31,764.3l9.89,7.21a7.06,7.06,0,0,0,3.24,1.68c.26,14.91,7.94,31.61,22.3,46,23.54,23.59,44.5,14.24,61.14-3.63s22.72-41.08-.89-61.07c-16.8-14.23-33.34-20.5-47.49-19.61a6.92,6.92,0,0,0-1.72-2.64l-6.16-7.16a356.27,356.27,0,0,0,88.13-212.61l11-1.32a7.05,7.05,0,0,0,3.51-1c10.35,10.74,27.35,17.72,47.66,18.46,33.3,1.22,42.27-19.91,42.27-44.32S946.78,438.76,915.87,440.21ZM494.18,723.3c-130.47,0-236.24-105.77-236.24-236.24S363.71,250.82,494.18,250.82,730.42,356.59,730.42,487.06,624.66,723.3,494.18,723.3Z"
     id="path30" />
  <g
     id="g1">
    <path
       class="cls-4"
       d="M221.8,401.32a14.69,14.69,0,0,1,8,6.12,12,12,0,0,1,1.58,9.8,330,330,0,0,0-7.16,37.88l-10-1.38a342.19,342.19,0,0,1,7.43-39.28c.36-1.41-.5-2.42-2.59-3s-3.32-.2-3.68,1.25c-2.43,9.48-4.43,19.22-5.95,28.89a14,14,0,0,1-5.48,9.3,12.81,12.81,0,0,1-9.71,2.64,12.46,12.46,0,0,1-8.85-5.39A14.67,14.67,0,0,1,183,436.88c2.58-14.49,5.71-28.65,9.54-42.87l9.69,3.14c-3.71,13.79-6.75,27.53-9.25,41.59-.26,1.63.7,2.63,2.86,3s3.29-.27,3.55-1.86c1.58-10,3.65-20.13,6.16-30a11.83,11.83,0,0,1,6.38-8.19A12.8,12.8,0,0,1,221.8,401.32Z"
       id="path32" />
    <path
       class="cls-4"
       d="M223.45,342.29c-3.58,7.18-5.28,10.87-8.46,18.44L245.41,375c-1.47,3.49-2.17,5.26-3.54,8.85L211,370.66c-3,7.78-4.34,11.76-6.86,19.93l-9.62-3.36a417.66,417.66,0,0,1,19.93-49.89Z"
       id="path34" />
    <path
       class="cls-4"
       d="m 282.61629,315.77 c -2.14,2.78 -3.19,4.2 -5.25,7.08 l -11.13,-8.52 a 228.46,228.46 0 0 0 -13.47,20.75 l -8.66,-5.54 a 236.52,236.52 0 0 1 13.94,-21.54 l -4.91,-3.76 q -2.66,-2 -3.91,-0.29 a 267.24,267.24 0 0 0 -15.29,24.12 q -1,1.85 1.8,3.59 l 25.95,15.87 c -1.78,3.18 -2.65,4.8 -4.33,8.08 l -26.44,-15 a 14.26,14.26 0 0 1 -6.67,-7.86 11.79,11.79 0 0 1 1,-10.1 276.05,276.05 0 0 1 15.76,-24.87 10.43,10.43 0 0 1 8.43,-4.78 13.84,13.84 0 0 1 9.5,3.39 z"
       id="path36" />
    <path
       class="cls-4"
       d="M311.58,281.34c-3.46,3.1-5.16,4.7-8.49,8a242.74,242.74,0,0,0-30.9-3.47,231.32,231.32,0,0,1,16.68-17.38c1.23-1.18.83-2.88-1.22-5.14s-3.72-2.79-5-1.58a260.5,260.5,0,0,0-20.52,21.76l25.31,22.63c-2.25,2.65-3.35,4-5.53,6.74L248,284.44a340.43,340.43,0,0,1,28-30.69,9.88,9.88,0,0,1,9.65-2.56,17.05,17.05,0,0,1,8.92,5.83,18.87,18.87,0,0,1,4.58,9.67,9.8,9.8,0,0,1-2.91,9c-1,.95-1.49,1.43-2.48,2.39C301,279.18,304.58,279.83,311.58,281.34Z"
       id="path38" />
    <path
       class="cls-4"
       d="M437.39,184.08c-10.94,2.2-21.51,4.7-32.27,7.64l1.92,6.37a283.57,283.57,0,0,1,29.58-7.1l2,10.16A274,274,0,0,0,410,208l4.91,16.29c-3.18.93-4.76,1.42-7.91,2.44L393,184.62C407,180.33,421,176.8,435.47,173.9Z"
       id="path40" />
    <path
       class="cls-4"
       d="M481.49,213.14a289.48,289.48,0,0,0-35.27,3.9l-7.85-43.65c3.78-.65,5.67-1,9.47-1.5l5,33.62a273.48,273.48,0,0,1,28.1-2.7Z"
       id="path42" />
    <path
       class="cls-4"
       d="M526,180.22c-11.12-.84-22-1.3-33.13-1.4l.06,6.64a290.64,290.64,0,0,1,30.31,1.18L522.34,197A280.84,280.84,0,0,0,493,195.81l.06,6.64a274.73,274.73,0,0,1,30.56,1.29l-1,10.3A291.09,291.09,0,0,0,484.93,213l-1.71-44.29c14.7-.29,29.14.12,43.8,1.22Z"
       id="path44" />
    <path
       class="cls-4"
       d="M571.67,187.81c-10.89-2.42-21.57-4.42-32.59-6.1l-.92,6.58A286.37,286.37,0,0,1,568,193.77l-2.44,10.07a276.71,276.71,0,0,0-28.83-5.3l-.92,6.58a270.59,270.59,0,0,1,30.07,5.62l-2.5,10.05a287.19,287.19,0,0,0-37.21-6.41L531,170.31c14.6,1.8,28.83,4.25,43.19,7.44Z"
       id="path46" />
    <path
       class="cls-4"
       d="M618.29,203c-6.64-2.76-10-4-16.79-6.41L590,228.63c-3.13-1.09-4.7-1.61-7.86-2.61l10.51-32.37c-6.85-2.16-10.3-3.15-17.26-4.92l2.63-10a321.27,321.27,0,0,1,44.28,14.72Z"
       id="path48" />
    <path
       class="cls-4"
       d="M693.47,248.15c-5.65-4.68-8.54-6.91-14.44-11.2l-19.86,27.68c-2.72-2-4.09-2.94-6.87-4.82l19-28.26c-6-4.08-9.08-6-15.31-9.7l5.29-8.93A300.05,300.05,0,0,1,700,240.09Z"
       id="path50" />
    <path
       class="cls-4"
       d="M716.93,299.79a14.34,14.34,0,0,1-9.86,3.81,11.34,11.34,0,0,1-8.65-3.79,212.44,212.44,0,0,0-15.16-15.35,11.45,11.45,0,0,1-3.67-8.7,15.13,15.13,0,0,1,3.74-10l10.39-12.56a13.32,13.32,0,0,1,9.41-5.16,12.48,12.48,0,0,1,9.85,3.48,246.12,246.12,0,0,1,17.56,17.78,13.39,13.39,0,0,1,3.58,10.15,13.6,13.6,0,0,1-4.95,9.7ZM711,292.84l11.91-11c1.81-1.67,1.86-3.49.12-5.4a238.28,238.28,0,0,0-17-17.22c-1.87-1.74-3.63-1.66-5.26.2L690,271.59c-1.63,1.85-1.57,3.56.16,5.17a220.31,220.31,0,0,1,15.72,15.92C707.53,294.45,709.22,294.51,711,292.84Z"
       id="path52" />
    <path
       class="cls-4"
       d="M746.27,344.07a14.81,14.81,0,0,1-9.77,2.1,9.63,9.63,0,0,1-7.4-4.8,217,217,0,0,0-14-21.08,9.86,9.86,0,0,1-1.55-8.74,16.42,16.42,0,0,1,5.5-8.59l23.31-19.77c2.53,3.16,3.77,4.77,6.21,8l-23.9,19q-2.63,2.09-1.45,3.68a225.1,225.1,0,0,1,14.5,21.92c.67,1.12,1.93,1.09,3.81-.11l25.66-16.35c2.12,3.63,3.15,5.47,5.17,9.2Z"
       id="path54" />
    <path
       class="cls-4"
       d="M754.67,398.41c-1.64-5.11-2.51-7.62-4.35-12.55,5.08-9.89,9.72-19.71,14.16-29.91a256.54,256.54,0,0,1,10,24.73c.65,1.82,2.36,2.2,5.16,1.11s3.88-2.58,3.21-4.46c-3.91-10.38-8-20.36-12.64-30.45l-29.74,15.77c-1.61-3.36-2.43-5-4.13-8.27L774.5,332.5a438.73,438.73,0,0,1,18.07,41.65,12.65,12.65,0,0,1-1,11.29,15.67,15.67,0,0,1-8.5,6.63,15.89,15.89,0,0,1-10.51.24,11.14,11.14,0,0,1-7.29-7.27c-.52-1.47-.79-2.21-1.32-3.66C760.38,388.35,758.53,391.77,754.67,398.41Z"
       id="path56" />
    <path
       class="cls-4"
       d="M780.79,455.63a13.47,13.47,0,0,1-9.73-2.33,12.71,12.71,0,0,1-5.38-8.74,320.19,320.19,0,0,0-8.23-37l9.69-3.14a332,332,0,0,1,8.53,38.38c.24,1.5,1.43,2.08,3.57,1.72s3.09-1.32,2.84-2.85c-1.52-9.67-3.51-19.41-5.94-28.9a13.24,13.24,0,0,1,1.46-10.33,13.92,13.92,0,0,1,7.87-6.37,12.46,12.46,0,0,1,10.1.74,12.68,12.68,0,0,1,6.42,8.62c3.41,14.58,6.13,29.08,8.29,43.89l-10,1.38c-2.09-14.37-4.73-28.44-8-42.58-.39-1.53-1.64-2-3.76-1.36s-2.9,1.65-2.52,3.15c2.52,9.84,4.59,19.93,6.17,30a13.67,13.67,0,0,1-2.49,10.81A12.69,12.69,0,0,1,780.79,455.63Z"
       id="path58" />
    <path
       class="cls-3"
       d="M328.79,239.09s6.41-8.79,8.32-14.73-1-17.35-1-17.35,8.17,8.11,14.76,9.17,16.91-.23,16.91-.23-6.56,9.26-8.32,14.73,1,17.35,1,17.35-3.89-5.81-14.76-9.17S328.79,239.09,328.79,239.09Z"
       id="path90" />
  </g>
  <path
     class="cls-4"
     d="M558.7,334.73s6.45-3.73,9.44-7.29,5-13.18,5-13.18,2,9.45,5.38,13,9.62,7,9.62,7-6.69,4-9.44,7.29-5,13.18-5,13.18-.33-5.94-5.38-13S558.7,334.73,558.7,334.73Z"
     id="path92" />
  <path
     class="cls-4"
     d="M358.7,416.73s6.45-3.73,9.44-7.29,5-13.18,5-13.18,2,9.45,5.38,13,9.62,7,9.62,7-6.69,4-9.44,7.29-5,13.18-5,13.18-.33-5.94-5.38-13S358.7,416.73,358.7,416.73Z"
     id="path94" />
  <path
     id="path2"
     d="M 184.3191,509.96045 A 313.51695,312.47882 85.296875 0 0 517.40337,801.52355 313.51695,312.47882 85.296875 0 0 807.83345,467.50563 313.51695,312.47882 85.296875 0 0 474.74918,175.94252 313.51695,312.47882 85.296875 0 0 184.3191,509.96045 Z"
     style="fill:none;stroke-width:1.15076" />
  <text
     xml:space="preserve"
     style="font-style:normal;font-variant:normal;font-weight:normal;font-stretch:normal;font-size:61.3333px;line-height:125%;font-family:Bitsumishi;-inkscape-font-specification:'Bitsumishi, Normal';font-variant-ligatures:normal;font-variant-caps:normal;font-variant-numeric:normal;font-variant-east-asian:normal;letter-spacing:3px;word-spacing:-20px;fill:none;stroke:#000000;stroke-width:1px;stroke-linecap:butt;stroke-linejoin:miter;stroke-opacity:1"
     id="text3"><textPath
       xlink:href="#path2"
       id="textPath3"
       style="font-style:normal;font-variant:normal;font-weight:normal;font-stretch:normal;font-size:61.3333px;font-family:Bitsumishi;-inkscape-font-specification:'Bitsumishi, Normal';font-variant-ligatures:normal;font-variant-caps:normal;font-variant-numeric:normal;font-variant-east-asian:normal;letter-spacing:3px;word-spacing:-20px;fill:#ffffff;fill-opacity:1;stroke:none"><tspan
   style="font-size:61.3333px;letter-spacing:2.75px;stroke:none"
   id="tspan21">Cape Canavera</tspan><tspan
   style="font-size:46.6667px;letter-spacing:2.75px;word-spacing:-35px;stroke:none"
   id="tspan17"><tspan
     style="font-size:61.3333px;word-spacing:-45px;stroke:none"
     id="tspan24">l</tspan><tspan
     style="font-size:61.3333px"
     id="tspan29"> </tspan><tspan
     style="font-size:46.6667px;word-spacing:-30px;stroke:none"
     id="tspan23"><tspan
       style="font-size:33.3333px;word-spacing:-30px;fill:#fba729;fill-opacity:1"
       id="tspan26">✦</tspan><tspan
       style="font-size:46.6667px;word-spacing:-25px"
       id="tspan27"> </tspan></tspan></tspan><tspan
   id="tspan20"
   style="font-size:61.3333px;letter-spacing:3px;word-spacing:-25px;stroke:none"><tspan
   style="word-spacing:-30px"
   id="tspan31"> </tspan>S</tspan>tarbase</textPath></text>
</svg>
